<?xml version="1.0" encoding="UTF-8"?>
<svg width="30px" height="34px" viewBox="0 0 30 20" version="1.1" xmlns="http://www.w3.org/2000/svg" xmlns:xlink="http://www.w3.org/1999/xlink">
    <!-- Generator: Sketch 60.1 (88133) - https://sketch.com -->
    <title>docker</title>
    <desc>Created with Sketch.</desc>
    <g id="OSS" stroke="none" stroke-width="1" fill="none" fill-rule="evenodd">
        <g id="Home---Marketing-Dark" transform="translate(-565.000000, -1000.000000)" fill="#FFFFFF" fill-rule="nonzero">
            <g id="docker" transform="translate(565.000000, 1000.000000)">
                <path d="M29.57875,7.166875 C28.553125,6.575 27.18625,6.49375 26.0225,6.83625 C25.879375,5.599375 25.06625,4.51375 24.099375,3.7375 L23.715625,3.42875 L23.393125,3.80125 C22.745625,4.55 22.553125,5.794375 22.64125,6.750625 C22.70625,7.45375 22.926875,8.166875 23.36,8.731875 C23.03125,8.929375 22.6575,9.086875 22.324375,9.199375 C21.646875,9.42875 20.910625,9.556875 20.195,9.556875 L18.645,9.556875 L18.645,6.42375 L15.58,6.42375 L15.58,0.29375 L11.901875,0.29375 L11.901875,3.35875 L5.7725,3.35875 L5.7725,6.42375 L2.7075,6.42375 L2.7075,9.556875 L0.08625,9.556875 L0.043125,10.02 C-0.100625,11.566875 0.11125,13.115625 0.750625,14.52875 L1.02625,15.089375 L1.0575,15.141875 C2.948125,18.3525 6.26875,19.705625 9.8875,19.705625 C16.8925,19.705625 22.67,16.57625 25.32375,9.966875 C27.0975,10.059375 28.91125,9.535 29.77875,7.841875 L30,7.41 L29.57875,7.166875 Z M6.283125,3.87 L8.94,3.87 L8.94,6.52625 L6.283125,6.52625 L6.283125,3.87 Z M9.50625,14.63125 C9.50625,15.03625 9.178125,15.36375 8.77375,15.36375 C8.36875,15.36375 8.040625,15.035625 8.040625,14.63125 C8.040625,14.226875 8.36875,13.898125 8.77375,13.898125 C9.178125,13.898125 9.50625,14.22625 9.50625,14.63125 Z M6.283125,6.935 L8.94,6.935 L8.94,9.59125 L6.283125,9.59125 L6.283125,6.935 Z M3.218125,6.935 L5.874375,6.935 L5.874375,9.59125 L3.218125,9.59125 L3.218125,6.935 Z M9.8875,19.195625 C6.09625,19.171875 4.04875,17.89125 2.384375,16.228125 L2.384375,16.228125 C2.386875,16.228125 2.38875,16.228125 2.39125,16.228125 C2.76875,16.248125 3.1325,16.260625 3.4825,16.265 C3.593125,16.26625 3.703125,16.2675 3.810625,16.2675 C4.2025,16.2675 4.575625,16.2575 4.93,16.2375 C4.96125,16.235625 4.991875,16.233125 5.023125,16.23125 C5.473125,16.20375 5.893125,16.16 6.28125,16.099375 C6.285625,16.09875 6.289375,16.098125 6.29375,16.0975 C6.38625,16.083125 6.476875,16.068125 6.565625,16.051875 C6.58,16.049375 6.59375,16.04625 6.6075,16.04375 C6.68625,16.02875 6.76375,16.01375 6.839375,15.9975 C6.86875,15.99125 6.89625,15.984375 6.925625,15.9775 C6.985,15.964375 7.045,15.950625 7.103125,15.936875 C7.175,15.919375 7.244375,15.9 7.313125,15.88125 C7.3275,15.8775 7.341875,15.87375 7.35625,15.87 C7.910625,17.148125 8.906875,18.31875 10.721875,19.18 C10.445,19.19 10.166875,19.195625 9.8875,19.195625 Z M12.005,9.59125 L9.34875,9.59125 L9.34875,6.935 L12.005,6.935 L12.005,9.59125 Z M12.005,6.52625 L9.34875,6.52625 L9.34875,3.87 L12.005,3.87 L12.005,6.52625 Z M15.07,9.59125 L12.41375,9.59125 L12.41375,6.935 L15.07,6.935 L15.07,9.59125 Z M15.07,6.52625 L12.41375,6.52625 L12.41375,3.87 L15.07,3.87 L15.07,6.52625 Z M15.07,3.46125 L12.41375,3.46125 L12.41375,0.805 L15.07,0.805 L15.07,3.46125 Z M18.135,9.59125 L15.47875,9.59125 L15.47875,6.935 L18.135,6.935 L18.135,9.59125 Z" id="Shape"></path>
                <path d="M8.963125,14.141875 C8.904375,14.11875 8.84,14.10625 8.773125,14.10625 C8.483125,14.10625 8.248125,14.34125 8.248125,14.63125 C8.248125,14.92125 8.483125,15.15625 8.773125,15.15625 C9.063125,15.15625 9.298125,14.92125 9.298125,14.63125 C9.298125,14.56 9.28375,14.491875 9.258125,14.43 C9.221875,14.49625 9.15125,14.54125 9.07,14.54125 C8.951875,14.54125 8.855625,14.445625 8.855625,14.326875 C8.85625,14.248125 8.899375,14.17875 8.963125,14.141875 Z" id="Path"></path>
            </g>
        </g>
    </g>
</svg>