<?xml version="1.0" encoding="UTF-8"?>
<svg width="31px" height="32px" viewBox="0 0 31 24" version="1.1" xmlns="http://www.w3.org/2000/svg" xmlns:xlink="http://www.w3.org/1999/xlink">
    <!-- Generator: Sketch 60.1 (88133) - https://sketch.com -->
    <title>ruby</title>
    <desc>Created with Sketch.</desc>
    <g id="OSS" stroke="none" stroke-width="1" fill="none" fill-rule="evenodd">
        <g id="Home---Marketing-Dark" transform="translate(-723.000000, -998.000000)" fill="#FFFFFF" fill-rule="nonzero">
            <g id="ruby" transform="translate(723.883268, 998.235294)">
                <path d="M1.83219814,7.89659443 L13.6390093,20.3145511 L7.99195046,7.89659443 L1.83219814,7.89659443 Z M9.54922601,7.89659443 L14.9547988,20.1851393 L20.3609907,7.89659443 L9.54922601,7.89659443 Z M27.6854489,7.89659443 L21.9170279,7.89659443 L16.2854489,20.3145511 L27.6854489,7.89659443 Z M10.2210526,6.47182663 L19.9164087,6.47182663 L15.0687307,1.40866873 L10.2210526,6.47182663 Z M23.4055728,0.975232198 L16.3448916,0.975232198 L21.1826625,6.02848297 L23.4055728,0.975232198 Z M6.50402477,0.975232198 L8.79814241,6.19071207 L13.7919505,0.975232198 L6.50402477,0.975232198 L6.50402477,0.975232198 Z M27.7009288,6.47182663 L24.5944272,1.81176471 L22.5442724,6.47182663 L27.7009288,6.47182663 L27.7009288,6.47182663 Z M2.28297214,6.47182663 L7.36470588,6.47182663 L5.36099071,1.91640867 L2.28297214,6.47182663 Z M5.08916409,0.160990712 L24.8352941,0.160990712 L29.7213622,7.48978328 L14.8606811,23.3684211 L0,7.69349845 L5.08916409,0.160990712 Z" id="Shape"></path>
            </g>
        </g>
    </g>
</svg>