<?xml version="1.0" encoding="UTF-8"?>
<svg width="165px" height="26px" viewBox="0 0 165 26" version="1.1" xmlns="http://www.w3.org/2000/svg" xmlns:xlink="http://www.w3.org/1999/xlink">
    <!-- Generator: Sketch 60.1 (88133) - https://sketch.com -->
    <title>kinto-white-logo</title>
    <desc>Created with Sketch.</desc>
    <g id="Templates" stroke="none" stroke-width="1" fill="none" fill-rule="evenodd">
        <g id="Home---Marketing" transform="translate(-188.000000, -17.000000)">
            <g id="Logos-/-Horizontal-/-Color-White" transform="translate(188.000000, 17.500000)">
                <g id="logo/full-color-horizontal">
                    <g id="Wordmark" transform="translate(52.903600, 3.179191)" fill="#000000" fill-rule="nonzero">
                        <path d="M8.05231181,8.63162061 L16.9711757,18.1642439 C17.1011845,18.2943017 17.0162451,18.4874759 16.8429002,18.4874759 L12.6930168,18.4874759 L5.97464966,11.1642744 C5.89766907,11.0553267 5.73619293,11.0606545 5.65972097,11.1423145 L3.7630662,13.0202312 L3.7630662,18.4874759 L0.429732869,18.4874759 L0.429732869,0.154142582 L3.7630662,0.154142582 L3.7630662,7.82921176 L11.7487026,0.154142582 L15.95768,0.154142582 C16.131025,0.154142582 16.1997969,0.300217998 16.0697882,0.430275801 L8.05231181,8.63162061 Z" id="Shape"></path>
                        <path d="M18.7630662,7.74533928 L18.7630662,18.4874759 L22.0963995,18.4874759 L22.0963995,6.60404624 L19.0994208,7.30794609 C18.9116304,7.35129869 18.7630662,7.54302714 18.7630662,7.74533928 Z" id="Shape"></path>
                        <path d="M18.1100465,3.7283237 L19.8001597,4.9566474 C19.9590592,5.0433526 20.1468496,5.07225434 20.3057491,5 L21.7936266,4.40751445 C21.8802991,4.37861272 21.9380807,4.30635838 21.9669715,4.21965318 L22.6025697,2.10982659 C22.6459059,1.97976879 22.5881243,1.84971098 22.472561,1.77745665 L20.7246661,0.722543353 C20.5946574,0.664739884 20.4502033,0.63583815 20.3057491,0.664739884 L18.8467625,1.05491329 C18.7456446,1.08381503 18.6734175,1.15606936 18.6445267,1.24277457 L17.9655923,3.36705202 C17.9511469,3.51156069 17.9944832,3.65606936 18.1100465,3.7283237 Z" id="Shape"></path>
                        <path d="M33.7399826,18.4874759 L33.7630662,11.4739884 C33.7630662,9.49421965 33.0032666,7.93352601 30.9086818,7.97687861 C29.2185685,8.00578035 27.9297329,9.52312139 27.9297329,11.4017341 L27.9297329,18.4874759 L24.610482,18.4874759 L24.610482,7.51445087 L24.610482,6.30057803 C24.610482,6.0982659 24.7404907,5.92485549 24.9427265,5.88150289 L25.7516696,5.67919075 L27.658464,5.24566474 L27.7162456,6.97976879 C29.0452236,5.67919075 30.0708479,5.01445087 31.7176249,5.01445087 C34.7944977,5.01445087 37.0963995,7.3265896 37.0963995,11.4306358 L37.0963995,18.4874759 L33.7399826,18.4874759 Z" id="Shape"></path>
                        <path d="M43.7630662,5.05051191 L48.8168296,4.18904347 C48.6245905,4.69587028 48.4833685,5.17861732 48.3931637,5.63728458 C48.3277789,5.96974866 48.2635653,6.31145088 48.2005229,6.66239124 C48.1569948,6.90445169 47.9657102,7.09285981 47.7230109,7.13267203 L43.7630662,7.78225865 L43.7630662,7.78225865 L43.7630662,12.4733186 C43.7630662,13.695983 44.0215083,15.5763792 45.423965,15.6064389 C45.7956759,15.6143792 46.2106022,15.5232076 46.5950149,15.3869464 C46.8213117,15.3068344 47.0366588,15.4317523 47.1299515,15.6472748 C47.2090824,15.8297599 47.4304153,16.3003644 47.598459,16.5866406 C48.0780624,17.403499 48.3138492,17.6914766 48.3138492,17.6914766 C47.3690962,18.2373722 46.3757259,18.4728872 45.20964,18.4682764 C42.0295118,18.4554469 40.4297329,15.6732594 40.4297329,12.4733186 L40.4297329,8.3507341 L37.9297329,8.77709069 L37.9297329,6.04534395 L40.4297329,5.61898736 L40.4297329,2.59927212 C40.4297329,2.40119 40.6806269,2.22933922 40.8791842,2.18439145 L43.7630662,1.52080925 L43.7630662,5.05051191 Z" id="Fill-5-Copy"></path>
                        <path d="M62.6539749,11.7774566 C62.6539749,15.5491329 60.0826915,18.5982659 55.8357403,18.5982659 C51.5887891,18.5982659 49.0463965,15.5491329 49.0463965,11.7774566 C49.0463965,8.03468208 51.6465707,4.9566474 55.8068494,4.9566474 C59.9815736,4.97109827 62.6539749,8.04913295 62.6539749,11.7774566 Z M52.4410684,11.7774566 C52.4410684,13.7716763 53.4955835,15.765896 55.8501857,15.765896 C58.2047879,15.765896 59.259303,13.7716763 59.259303,11.7774566 C59.259303,9.81213873 58.0314429,7.76011561 55.8501857,7.76011561 C53.5100289,7.76011561 52.4410684,9.8265896 52.4410684,11.7774566 Z" id="Shape"></path>
                        <path d="M77.0963995,18.4874759 L77.0963995,10.7803468 L68.9145616,11.8208092 C68.8134437,11.8352601 68.7630662,11.9219653 68.7630662,12.0231214 L68.7630662,18.4874759 L65.4297329,18.4874759 L65.4297329,0.154142582 L68.7630662,0.154142582 L68.7630662,8.61271676 L76.969243,7.60302564 C77.0559154,7.58857477 77.0963995,7.47109827 77.0963995,7.3699422 L77.0963995,0.154142582 L80.4297329,0.154142582 L80.4297329,18.4874759 L77.0963995,18.4874759 Z" id="Shape"></path>
                        <path d="M86.2630662,6.37283237 L86.2630662,12.0809249 C86.2630662,14.0606936 86.643583,15.5346821 88.9837398,15.5780347 C90.4716173,15.6069364 92.0963995,14.0317919 92.0963995,12.1531792 L92.0963995,7.42774566 L92.0963995,6.05491329 C92.0963995,5.85260116 92.2195122,5.67919075 92.4073026,5.63583815 L95.4297329,5.24566474 L95.4297329,18.4874759 L92.5373113,18.4874759 C92.3784117,18.4874759 92.248403,18.2225434 92.248403,18.0635838 L92.1906214,16.5606936 C90.9916521,17.8901734 89.8793554,18.5260116 88.0592334,18.5260116 C84.924579,18.5260116 82.9455575,16.1705202 82.9455575,12.1098266 L82.9455575,7.5433526 L82.9455575,7.15317919 C82.9455575,6.95086705 83.0900116,6.77745665 83.277802,6.73410405 L86.2630662,6.37283237 Z" id="Shape"></path>
                        <path d="M101.263066,0.154142582 L101.263066,6.86416185 C102.1009,5.72254335 104.093641,4.9566474 105.465955,4.97109827 C108.571719,5 112.009727,7.25433526 112.009727,11.7630058 C112.009727,16.0549133 109.106199,18.916185 105.278165,18.5982659 C103.761397,18.4682081 102.186847,17.5144509 101.349013,16.5028902 L101.276786,18.0346821 C101.26234,18.1936416 101.146777,18.4874759 100.987877,18.4874759 L97.9297329,18.4874759 L97.9297329,0.85548739 C97.9297329,0.653175251 98.071487,0.482867761 98.328089,0.455757979 L101.263066,0.154142582 Z M101.580139,11.7485549 C101.580139,14.1040462 103.18358,15.7369942 105.220383,15.7369942 C107.473868,15.7369942 108.716173,13.7427746 108.716173,11.7196532 C108.716173,9.65317919 107.286077,7.78901734 105.220383,7.78901734 C103.18358,7.78901734 101.580139,9.47976879 101.580139,11.7485549 Z" id="Shape"></path>
                    </g>
                    <g id="Mark">
                        <path d="M38.1503339,7.39884393 C33.600029,5.50578035 29.7719948,6.37283237 26.6228949,8.20809249 C28.0529907,11.0693642 28.4574623,14.3786127 30.0464576,16.5462428 C32.1843786,19.4508671 36.1424216,21.8352601 39.1904036,21.7919075 C41.6750145,21.7630058 43.0328833,20.1445087 43.3073461,19.6965318 C43.3217915,19.6820809 43.3217915,19.6676301 43.3362369,19.6531792 C43.3362369,19.6531792 43.3362369,19.6531792 43.3362369,19.6387283 C43.5962544,19.1763006 43.7840447,18.6849711 43.8851626,18.1358382 C44.6218786,14.4075145 42.5706301,9.23410405 38.1503339,7.39884393 Z" id="Shape" fill="#1EC4E9"></path>
                        <path d="M9.389518,21.0260116 C13.2464431,20.5780347 16.1066347,19.2774566 20.9891841,13.8872832 C22.6504065,12.066474 24.1093931,9.68208092 26.6228949,8.20809249 C25.0194541,5 22.7804152,2.02312139 18.2012195,0.809248555 C12.3941638,-0.722543353 8.27722125,0.115606936 4.30473287,3.67052023 C1.5312137,6.15606936 0.534480256,9.04624277 0.274462834,10.1734104 C-0.447807782,13.3236994 0.75116144,16.2427746 1.83456736,18.1069364 C2.00791231,18.3959538 4.21806039,21.632948 9.389518,21.0260116 Z" id="Shape" fill="#A295EE"></path>
                        <path d="M31.0287456,24.6387283 C31.0865273,24.6387283 31.1443089,24.6242775 31.216536,24.6242775 C31.3176539,24.6098266 31.4043264,24.6098266 31.4909988,24.5953757 C33.2533391,24.4364162 34.9434524,24.2052023 36.4457753,23.8583815 C36.5180023,23.8439306 36.5902294,23.8294798 36.6624564,23.8150289 C36.7057927,23.800578 36.7346835,23.800578 36.7780197,23.7861272 C38.4970238,23.367052 39.8837834,22.7890173 40.9960801,22.0520231 C41.0105256,22.0375723 41.0394164,22.0231214 41.0538618,22.0086705 C41.097198,21.9797688 41.1260889,21.9508671 41.1694251,21.9219653 C41.1983159,21.9075145 41.2127613,21.8930636 41.2416521,21.8786127 C41.2994338,21.8352601 41.34277,21.8063584 41.4005517,21.7630058 C41.4005517,21.7630058 41.4005517,21.7630058 41.4005517,21.7630058 C42.0217044,21.300578 42.5417393,20.7803468 42.9317654,20.2601156 C42.9462108,20.2456647 42.9606562,20.2312139 42.9751016,20.2023121 C42.989547,20.1878613 42.989547,20.1734104 43.0039925,20.1589595 C43.1195557,20 43.2206736,19.8410405 43.3217915,19.6676301 C43.0473287,20.1156069 41.9205865,21.3872832 39.4359756,21.416185 C36.3879936,21.4595376 32.7044135,19.1763006 30.5664925,16.2572254 C28.9774971,14.0895954 28.0674361,11.0404624 26.6373403,8.17919075 C24.138284,9.65317919 22.0581446,11.734104 20.3969222,13.5693642 C15.5143728,18.9450867 12.9864257,20.1734104 9.12950058,20.6213873 C3.95804297,21.2283237 2.00791231,18.367052 1.83456736,18.0924855 C1.83456736,18.1069364 1.84901278,18.1069364 1.84901278,18.1213873 C1.9934669,18.367052 2.75907375,19.566474 3.95804297,20.7080925 C4.52141405,21.2283237 5.09923055,21.6618497 5.61926539,22.0086705 C7.94497677,23.4248555 11.1663037,24.8121387 22.7804152,24.8699422 C25.9295151,24.8988439 28.659698,24.8265896 31.0287456,24.6387283 Z" id="Shape" fill="#7A68E8"></path>
                    </g>
                </g>
            </g>
        </g>
    </g>
</svg>