<?xml version="1.0" encoding="UTF-8"?>
<svg width="29px" height="31px" viewBox="0 0 29 31" version="1.1" xmlns="http://www.w3.org/2000/svg" xmlns:xlink="http://www.w3.org/1999/xlink">
    <!-- Generator: Sketch 60.1 (88133) - https://sketch.com -->
    <title>angular</title>
    <desc>Created with Sketch.</desc>
    <g id="Templates" stroke="none" stroke-width="1" fill="none" fill-rule="evenodd">
        <g id="Home---Marketing" transform="translate(-414.000000, -936.000000)" fill-rule="nonzero">
            <g id="angular" transform="translate(414.000000, 936.250000)">
                <polygon id="Path" fill="#404040" points="0.0109864958 5.02082857 13.8869306 0.0769054704 28.1364157 4.9329366 25.8292515 23.291371 13.8869306 29.9052415 2.13138018 23.3792629"></polygon>
                <polygon id="Path" fill="#000000" points="28.1364157 4.9329366 13.8869306 0.0769054704 13.8869306 29.9052415 25.8292515 23.3023575"></polygon>
                <path d="M13.9089036,3.55962463 L13.9089036,3.55962463 L5.26253147,22.7969787 L8.49256123,22.7420463 L10.2284276,18.4023804 L13.9198901,18.4023804 L13.9308767,18.4023804 L17.9848936,18.4023804 L19.8855574,22.7969787 L22.9727626,22.8519111 L13.9089036,3.55962463 L13.9089036,3.55962463 Z M13.9308767,9.72304875 L16.8532845,15.8315404 L14.0517281,15.8315404 L13.9089036,15.8315404 L11.3600366,15.8315404 L13.9308767,9.72304875 L13.9308767,9.72304875 Z" id="Shape" fill="#FFFFFF"></path>
            </g>
        </g>
    </g>
</svg>