<?xml version="1.0" encoding="UTF-8"?>
<svg width="30px" height="31px" viewBox="0 0 30 31" version="1.1" xmlns="http://www.w3.org/2000/svg" xmlns:xlink="http://www.w3.org/1999/xlink">
    <!-- Generator: Sketch 60.1 (88133) - https://sketch.com -->
    <title>gatsby</title>
    <desc>Created with Sketch.</desc>
    <g id="Templates" stroke="none" stroke-width="1" fill="none" fill-rule="evenodd">
        <g id="Home---Marketing" transform="translate(-217.000000, -936.000000)" fill="#000000" fill-rule="nonzero">
            <g id="gatsby" transform="translate(217.000000, 936.250000)">
                <path d="M15,0 C6.71573415,0 0,6.71570789 0,15 C0,23.2843184 6.7157604,30 15,30 C23.2843184,30 30,23.2842921 30,15 C30,6.71570789 23.2843184,0 15,0 Z M3.22312184,15.1563648 L14.8436089,26.7768782 C8.462631,26.6937076 3.30626614,21.5373428 3.22312184,15.1563648 Z M17.6362811,26.4824208 L3.51757923,12.3637189 C4.71478378,7.12772773 9.40105643,3.22115284 15,3.22115284 C18.9137682,3.22115284 22.3810461,5.13047907 24.5229769,8.06793838 L22.8921198,9.50693613 C21.1546479,7.01528469 18.2679626,5.38461135 15,5.38461135 C10.8392403,5.38461135 7.29603785,8.02748198 5.95677652,11.725973 L18.2740533,24.0432497 C21.2653057,22.9600372 23.5658329,20.4349915 24.3363157,17.3076943 L19.2307773,17.3076943 L19.2307773,15.0000262 L24.6153887,15.0000262 L24.6153887,14.9999737 L26.7788471,14.9999737 L26.7788471,15 C26.7788471,20.5989436 22.8722985,25.2852162 17.6362811,26.4824208 Z" id="Shape"></path>
            </g>
        </g>
    </g>
</svg>