<?xml version="1.0" encoding="UTF-8"?>
<svg width="24px" height="30px" viewBox="0 0 24 30" version="1.1" xmlns="http://www.w3.org/2000/svg" xmlns:xlink="http://www.w3.org/1999/xlink">
    <!-- Generator: Sketch 60.1 (88133) - https://sketch.com -->
    <title>golang</title>
    <desc>Created with Sketch.</desc>
    <g id="Templates" stroke="none" stroke-width="1" fill="none" fill-rule="evenodd">
        <g id="Home---Marketing" transform="translate(-646.000000, -936.000000)" fill="#000000" fill-rule="nonzero">
            <g id="golang" transform="translate(646.000000, 936.000000)">
                <path d="M16.178125,7.234375 C15.445625,7.234375 14.8525,7.828125 14.8525,8.56 C14.8525,9.291875 15.44625,9.885625 16.178125,9.885625 C16.910625,9.885625 17.50375,9.291875 17.50375,8.56 C17.50375,7.828125 16.910625,7.234375 16.178125,7.234375 Z M15.829375,8.40875 C15.598125,8.40875 15.410625,8.22125 15.410625,7.99 C15.410625,7.75875 15.598125,7.57125 15.829375,7.57125 C16.060625,7.57125 16.248125,7.75875 16.248125,7.99 C16.248125,8.221875 16.060625,8.40875 15.829375,8.40875 Z" id="Shape"></path>
                <path d="M11.700625,11.45875 C11.305,11.470625 10.816875,11.645 10.676875,12.18 C10.363125,13.32 13.200625,13.145625 13.13125,12.4125 C13.09625,11.981875 12.7125,11.435625 11.700625,11.45875 Z" id="Path"></path>
                <path d="M7.56,7.234375 C6.8275,7.234375 6.234375,7.828125 6.234375,8.56 C6.234375,9.291875 6.828125,9.885625 7.56,9.885625 C8.291875,9.885625 8.885625,9.291875 8.885625,8.56 C8.885625,7.828125 8.2925,7.234375 7.56,7.234375 Z M7.90875,8.40875 C7.6775,8.40875 7.49,8.22125 7.49,7.99 C7.49,7.75875 7.6775,7.57125 7.90875,7.57125 C8.14,7.57125 8.3275,7.75875 8.3275,7.99 C8.3275,8.221875 8.14,8.40875 7.90875,8.40875 Z" id="Shape"></path>
                <path d="M23.36625,3.943125 C22.586875,2.349375 20.703125,3.756875 20.22625,3.256875 C17.783125,0.744375 14.829375,0.11625 12.515,0 C12.515,0 11.468125,0 11.235625,0 C8.909375,0.058125 5.955,0.7325 3.524375,3.256875 C3.0475,3.756875 1.151875,2.349375 0.38375,3.943125 C-0.511875,5.80375 2.21,5.99 2.07,6.815625 C1.8025,8.304375 1.976875,10.514375 2.18625,12.689375 C2.276875,13.714375 2.129375,15.136875 1.991875,16.731875 C2.631875,16.775 3.12625,17.489375 3.12625,18.40125 C3.12625,19.34125 2.601875,20.07875 1.931875,20.07875 C1.88875,20.07875 1.848125,20.0675 1.805625,20.06125 C1.780625,23.006875 2.264375,26.025 4.49,28.006875 C4.69,27.89625 4.903125,27.833125 5.13125,27.833125 L5.13125,27.833125 C5.62625,27.833125 6.039375,28.089375 6.4775,28.36125 C6.65875,28.47375 6.845625,28.59 7.044375,28.69 C7.333125,28.8375 7.49875,29.11125 7.509375,29.409375 C8.830625,29.67 10.49625,29.82 12.025,29.855625 L12.036875,29.855625 L12.04875,29.855625 C13.538125,29.82125 15.031875,29.675625 16.23625,29.4275 C16.1925,29.07875 16.36125,28.74375 16.695625,28.5725 C16.89125,28.47375 17.078125,28.3575 17.259375,28.245 C17.696875,27.97375 18.110625,27.716875 18.605625,27.716875 C18.861875,27.716875 19.100625,27.78875 19.320625,27.926875 C21.485,25.936875 21.956875,22.946875 21.93125,20.03 C21.841875,20.05875 21.75,20.078125 21.65375,20.078125 C20.984375,20.078125 20.459375,19.34125 20.459375,18.400625 C20.459375,17.46 20.98375,16.7225 21.65375,16.7225 C21.686875,16.7225 21.7175,16.7325 21.75,16.735625 C21.614375,15.138125 21.46875,13.71375 21.5625,12.688125 C21.76,10.513125 21.935,8.303125 21.67875,6.814375 C21.54,5.99 24.261875,5.791875 23.36625,3.943125 Z M2.186875,5.1875 C2.14,5.46625 1.14,4.78 1.546875,4.28 C1.8725,3.86125 2.4775,3.9775 2.546875,4.221875 C2.616875,4.46625 2.303125,4.43125 2.186875,5.1875 Z M4.303125,8.420625 C4.605625,6.048125 6.6175,4.93125 7.815625,5.07125 C11.7,5.525 11.176875,9.5725 9.67625,10.886875 C6.885625,13.32875 3.9775,10.88625 4.303125,8.420625 Z M12.6075,15.555625 C12.375,15.706875 11.38625,15.590625 11.025625,15.555625 C10.490625,15.4975 10.665,14.3575 10.77,14.31125 C10.88625,14.253125 12.32875,14.11375 12.75875,14.3925 C13.015,14.5675 13.06125,15.265 12.6075,15.555625 Z M14.2475,12.921875 C14.108125,14.073125 9.723125,14.224375 9.490625,12.851875 C9.35125,12.014375 10.01375,11.479375 11.875,11.2 C12.6075,11.095625 14.36375,11.933125 14.2475,12.921875 Z M14.05,10.88625 C12.549375,9.571875 12.02625,5.524375 15.910625,5.070625 C17.12,4.93125 19.1325,6.0475 19.423125,8.42 C19.74875,10.88625 16.84125,13.32875 14.05,10.88625 Z M21.551875,5.1875 C21.435625,4.43125 21.12125,4.46625 21.19125,4.221875 C21.249375,3.9775 21.854375,3.86125 22.19125,4.28 C22.59875,4.78 21.598125,5.46625 21.551875,5.1875 Z" id="Shape"></path>
                <path d="M19.1775,28.69375 C19.1625,28.6775 19.1475,28.6625 19.1325,28.6475 C19.0875,28.603125 19.043125,28.564375 18.998125,28.533125 C18.9875,28.525625 18.976875,28.51625 18.966875,28.509375 C18.913125,28.475 18.85875,28.45 18.804375,28.4325 C18.79125,28.428125 18.7775,28.42625 18.764375,28.4225 C18.720625,28.41125 18.676875,28.405 18.6325,28.403125 C18.62375,28.4025 18.615625,28.399375 18.606875,28.399375 C18.600625,28.399375 18.594375,28.40125 18.5875,28.401875 C18.54125,28.403125 18.494375,28.408125 18.4475,28.418125 C18.441875,28.419375 18.436875,28.419375 18.43125,28.420625 C18.378125,28.4325 18.324375,28.450625 18.269375,28.47125 C18.2525,28.4775 18.235625,28.485625 18.21875,28.4925 C18.179375,28.509375 18.139375,28.5275 18.09875,28.5475 C18.079375,28.556875 18.060625,28.566875 18.04125,28.576875 C17.9975,28.6 17.953125,28.625 17.908125,28.650625 C17.894375,28.65875 17.880625,28.66625 17.86625,28.674375 C17.80625,28.71 17.745625,28.746875 17.683125,28.785625 C17.62625,28.820625 17.56875,28.856875 17.509375,28.893125 C17.486875,28.906875 17.464375,28.920625 17.44125,28.935 C17.3925,28.965 17.3425,28.994375 17.291875,29.02375 C17.269375,29.036875 17.2475,29.05 17.225,29.0625 C17.15375,29.103125 17.08125,29.143125 17.005625,29.18125 C16.96625,29.20125 16.943125,29.226875 16.92625,29.254375 C16.92375,29.25875 16.91875,29.261875 16.91625,29.26625 C16.915,29.269375 16.916875,29.2725 16.915625,29.275625 C16.905625,29.3025 16.9025,29.330625 16.91,29.36125 C16.910625,29.36375 16.91,29.365625 16.910625,29.368125 C16.92,29.40125 16.941875,29.435625 16.97,29.470625 C16.976875,29.479375 16.985,29.488125 16.993125,29.496875 C17.021875,29.528125 17.05625,29.55875 17.098125,29.589375 C17.104375,29.59375 17.10875,29.598125 17.115,29.6025 C17.16375,29.63625 17.22125,29.668125 17.284375,29.698125 C17.299375,29.705625 17.31625,29.7125 17.331875,29.719375 C17.389375,29.744375 17.451875,29.7675 17.518125,29.788125 C17.53125,29.791875 17.543125,29.796875 17.55625,29.800625 C17.635,29.823125 17.72,29.840625 17.80875,29.854375 C17.83,29.8575 17.851875,29.86 17.87375,29.8625 C17.95125,29.8725 18.031875,29.878125 18.115625,29.879375 C18.130625,29.879375 18.143125,29.8825 18.158125,29.8825 C18.165,29.8825 18.173125,29.88125 18.18,29.88125 C18.224375,29.880625 18.27125,29.876875 18.316875,29.874375 C18.3525,29.871875 18.3875,29.87125 18.424375,29.866875 C18.47375,29.86125 18.524375,29.851875 18.574375,29.843125 C18.609375,29.836875 18.644375,29.833125 18.68,29.825 C18.736875,29.8125 18.795,29.795 18.8525,29.778125 C18.883125,29.769375 18.913125,29.7625 18.944375,29.7525 C19.03375,29.7225 19.12375,29.6875 19.215,29.645625 C19.5875,29.47125 19.575625,29.23875 19.343125,28.90125 C19.286875,28.820625 19.231875,28.75375 19.1775,28.69375 Z" id="Path"></path>
                <path d="M6.813125,29.37125 C6.796875,29.34375 6.773125,29.318125 6.73375,29.298125 C6.658125,29.26 6.585625,29.22 6.514375,29.179375 C6.49125,29.16625 6.46875,29.153125 6.44625,29.14 C6.39625,29.110625 6.3475,29.081875 6.299375,29.0525 C6.275,29.0375 6.250625,29.023125 6.22625,29.008125 C6.171875,28.974375 6.118125,28.94125 6.065625,28.90875 C6,28.868125 5.935625,28.82875 5.873125,28.79125 C5.8575,28.781875 5.8425,28.77375 5.8275,28.765 C5.78375,28.739375 5.740625,28.715625 5.698125,28.693125 C5.678125,28.6825 5.65875,28.6725 5.63875,28.663125 C5.59875,28.643125 5.55875,28.625 5.52,28.60875 C5.503125,28.60125 5.485625,28.59375 5.46875,28.586875 C5.414375,28.56625 5.36,28.548125 5.3075,28.53625 C5.301875,28.535 5.296875,28.535 5.29125,28.53375 C5.24375,28.52375 5.1975,28.51875 5.15125,28.5175 C5.14875,28.5175 5.146875,28.516875 5.144375,28.516875 C5.14,28.516875 5.13625,28.515625 5.131875,28.515625 C5.123125,28.515625 5.115,28.51875 5.10625,28.519375 C5.061875,28.52125 5.0175,28.5275 4.97375,28.53875 C4.960625,28.541875 4.9475,28.544375 4.934375,28.548125 C4.88,28.565625 4.825625,28.590625 4.771875,28.625 C4.76125,28.631875 4.750625,28.64125 4.74,28.64875 C4.695625,28.68 4.650625,28.718125 4.60625,28.763125 C4.59125,28.778125 4.57625,28.793125 4.56125,28.809375 C4.506875,28.869375 4.451875,28.93625 4.39625,29.018125 C4.16375,29.355625 4.151875,29.588125 4.524375,29.7625 C4.615625,29.804375 4.705625,29.839375 4.795,29.869375 C4.82625,29.879375 4.855625,29.88625 4.886875,29.895 C4.945,29.911875 5.003125,29.929375 5.059375,29.941875 C5.095,29.95 5.129375,29.95375 5.165,29.96 C5.215625,29.96875 5.26625,29.978125 5.315,29.98375 C5.35125,29.988125 5.386875,29.98875 5.4225,29.99125 C5.46875,29.994375 5.515,29.998125 5.559375,29.998125 C5.56625,29.998125 5.574375,29.999375 5.58125,29.999375 C5.59625,29.999375 5.609375,29.996875 5.624375,29.99625 C5.7075,29.994375 5.7875,29.98875 5.865,29.979375 C5.886875,29.976875 5.91,29.974375 5.93125,29.97125 C6.02,29.9575 6.105,29.94 6.183125,29.9175 C6.196875,29.91375 6.20875,29.90875 6.2225,29.904375 C6.28875,29.88375 6.35125,29.860625 6.408125,29.835625 C6.424375,29.82875 6.440625,29.821875 6.45625,29.814375 C6.519375,29.784375 6.576875,29.7525 6.625625,29.71875 C6.631875,29.714375 6.63625,29.71 6.641875,29.705625 C6.68375,29.675 6.71875,29.64375 6.7475,29.6125 C6.755625,29.60375 6.76375,29.595 6.770625,29.58625 C6.79875,29.55125 6.820625,29.516875 6.83,29.48375 C6.830625,29.48125 6.83,29.479375 6.830625,29.476875 C6.838125,29.44625 6.835,29.418125 6.825,29.39125 C6.82125,29.385 6.8175,29.378125 6.813125,29.37125 Z" id="Path"></path>
                <path d="M2.444375,18.40125 C2.444375,17.83125 2.174375,17.405625 1.9325,17.405625 C1.69125,17.405625 1.420625,17.83125 1.420625,18.40125 C1.420625,18.97125 1.690625,19.39625 1.9325,19.39625 C2.174375,19.39625 2.444375,18.97125 2.444375,18.40125 Z" id="Path"></path>
                <path d="M21.654375,17.405625 C21.4125,17.405625 21.1425,17.83125 21.1425,18.40125 C21.1425,18.97125 21.4125,19.39625 21.654375,19.39625 C21.89625,19.39625 22.16625,18.97125 22.16625,18.40125 C22.165625,17.831875 21.89625,17.405625 21.654375,17.405625 Z" id="Path"></path>
            </g>
        </g>
    </g>
</svg>