<?xml version="1.0" encoding="UTF-8"?>
<svg width="27px" height="31px" viewBox="0 0 27 31" version="1.1" xmlns="http://www.w3.org/2000/svg" xmlns:xlink="http://www.w3.org/1999/xlink">
    <!-- Generator: Sketch 60.1 (88133) - https://sketch.com -->
    <title>hugo</title>
    <desc>Created with Sketch.</desc>
    <g id="Templates" stroke="none" stroke-width="1" fill="none" fill-rule="evenodd">
        <g id="Home---Marketing" transform="translate(-337.000000, -936.000000)" fill="#000000" fill-rule="nonzero">
            <g id="hugo" transform="translate(337.000000, 936.250000)">
                <path d="M26.4233577,9.3650365 L26.4233577,19.5483212 L26.4216107,19.5482482 L26.4216107,20.7427007 C26.4216107,22.1537226 25.6588273,23.4539416 24.4276298,24.1411679 C21.8322447,25.5887591 17.3268802,28.1009489 14.7830315,29.52 C13.6109409,30.1735766 12.1809495,30.1589051 11.0229804,29.4808759 L2.31173807,24.3821168 C0.880108906,23.5440876 0,22.0083212 0,20.3475182 L0,9.92124088 C0,8.24693431 0.866817156,6.69269343 2.29012624,5.81389781 C4.65009604,4.35646715 8.30610605,2.09914599 10.6494866,0.65230146 C12.0295429,-0.19980292 13.7664966,-0.21830073 15.1648963,0.604008029 C17.8125459,2.16180292 22.1357129,4.70524818 24.5827488,6.14486131 C25.7228839,6.81569343 26.4233577,8.04080292 26.4233577,9.3650365 Z M7.43275221,7.37372263 L7.43275221,22.4992701 L10.5885601,22.4992701 L10.5885601,15.8856934 L15.8234421,15.8856934 L15.8234421,22.4992701 L18.9884217,22.4992701 L18.9884217,7.37372263 L15.8234421,7.37372263 L15.8234421,12.8832117 L10.5885601,12.8832117 L10.5885601,7.37372263 L7.43275221,7.37372263 Z" id="Shape"></path>
            </g>
        </g>
    </g>
</svg>