<?xml version="1.0" encoding="UTF-8"?>
<svg width="30px" height="30px" viewBox="0 0 30 30" version="1.1" xmlns="http://www.w3.org/2000/svg" xmlns:xlink="http://www.w3.org/1999/xlink">
    <!-- Generator: Sketch 60.1 (88133) - https://sketch.com -->
    <title>minio</title>
    <desc>Created with Sketch.</desc>
    <g id="Templates" stroke="none" stroke-width="1" fill="none" fill-rule="evenodd">
        <g id="Home---Marketing" transform="translate(-1075.000000, -935.000000)">
            <g id="minio" transform="translate(1075.250000, 935.282258)">
                <circle id="Oval" fill="#000000" cx="14.7502338" cy="14.7502338" r="14.7502338"></circle>
                <g transform="translate(9.677063, 5.238039)" fill="#FFFFFF" fill-opacity="0.87" fill-rule="nonzero">
                    <path d="M7.21127225,1.15945946 C7.21127225,1.15945946 9.03144364,4.0902439 9.63816744,5.13144364 C9.6497528,5.1475751 9.6497528,5.16930032 9.63816744,5.18543177 C9.62989288,5.1944089 9.61824054,5.19951569 9.60603164,5.19951569 C9.59382275,5.19951569 9.5821704,5.1944089 9.57389585,5.18543177 L6.42972973,1.90758075 L7.21127225,1.15945946 Z" id="Path"></path>
                    <path d="M1.85102175,11.8516809 C2.38354962,10.7245863 3.10722652,9.69821767 3.98998022,8.81806196 C4.32575745,8.4824233 4.6830042,8.16897363 5.05945946,7.87969677 L5.05945946,10.193474 L1.85102175,11.8516809 Z M-3.55271368e-15,13.9957811 L5.05945946,11.4249176 L5.05945946,17.3121951 L6.19835201,18.7930125 L6.19835201,10.8233355 L6.8899143,10.4659855 C7.85985439,9.97735774 8.54128317,9.0584761 8.72722145,7.98844441 C8.91315972,6.91841271 8.58166305,5.82351609 7.83342123,5.03632169 L5.22913645,2.31377719 C5.01291923,2.08054144 5.02555156,1.71650063 5.25741595,1.49881345 C5.49151681,1.28230299 5.85637007,1.2949237 6.07495056,1.52709295 L6.44001318,1.90758075 L7.21127225,1.1568886 C6.28833223,-0.0411338167 5.15458141,0.110547132 4.50415293,0.709558339 C3.83796317,1.33764439 3.80576407,2.38641492 4.43216875,3.05418589 L7.06473303,5.7972973 C7.54887762,6.31664624 7.77223128,7.02705933 7.6723794,7.73001659 C7.57252751,8.43297385 7.16017847,9.05308825 6.55056032,9.41707317 L6.19321028,9.60217535 L6.19321028,5.88213579 C3.01887516,7.51752548 0.745731872,10.4908233 -3.55271368e-15,13.9829268 L-3.55271368e-15,13.9957811 L-3.55271368e-15,13.9957811 Z" id="Shape"></path>
                    <polygon id="Path" points="6.19835201 10.8207647 6.19835201 12.0239288 5.05945946 12.6023731 5.05945946 11.4069216"></polygon>
                </g>
            </g>
        </g>
    </g>
</svg>