<?xml version="1.0" encoding="UTF-8"?>
<svg width="30px" height="31px" viewBox="0 0 15 31" version="1.1" xmlns="http://www.w3.org/2000/svg" xmlns:xlink="http://www.w3.org/1999/xlink">
    <!-- Generator: Sketch 60.1 (88133) - https://sketch.com -->
    <title>mongo</title>
    <desc>Created with Sketch.</desc>
    <g id="Templates" stroke="none" stroke-width="1" fill="none" fill-rule="evenodd">
        <g id="Home---Marketing" transform="translate(-911.000000, -935.000000)" fill="#000000" fill-rule="nonzero">
            <g id="mongo" transform="translate(911.000000, 935.282258)">
                <path d="M7.483125,24.358125 C7.503125,24.3475 7.51625,24.340625 7.51625,24.340625 C7.51625,24.336875 7.515625,24.333125 7.515625,24.329375 C7.504375,24.339375 7.494375,24.348125 7.483125,24.358125 Z" id="Path"></path>
                <g id="Group">
                    <path d="M14.224375,11.485 C12.7025,4.7775 7.86625,0.079375 7.86625,0.079375 L7.86625,0.089375 C9.7175,7.944375 8.24125,25.8025 8.24125,25.8025 C8.24125,25.8025 15.806875,20.716875 14.224375,11.485 Z" id="Path"></path>
                    <path d="M6.93875,0.089375 L6.93875,0.079375 L6.94,0.080625 C6.929375,0.05 6.918125,0.019375 6.909375,0 C6.864375,0.591875 0.935,5.85125 0.571875,13.47125 C0.206875,21.09125 7.314375,25.8025 7.314375,25.8025 C7.314375,25.8025 8.79,7.945 6.93875,0.089375 Z" id="Path"></path>
                </g>
                <path d="M7.87375,26.73 C7.87375,26.73 7.413125,26.423125 6.734375,25.844375 C6.734375,25.844375 6.7325,25.84375 6.7325,25.84375 C7.79875,27.388125 7.2925,30 7.2925,30 L8.2925,30 C8.2925,30 8.110625,27.834375 8.33125,26.843125 C8.398125,26.543125 8.818125,26.04 8.999375,25.81875 L8.999375,25.81875 C8.333125,26.420625 7.87375,26.73 7.87375,26.73 Z" id="Path"></path>
            </g>
        </g>
    </g>
</svg>