<?xml version="1.0" encoding="UTF-8"?>
<svg width="31px" height="30px" viewBox="0 0 31 30" version="1.1" xmlns="http://www.w3.org/2000/svg" xmlns:xlink="http://www.w3.org/1999/xlink">
    <!-- Generator: Sketch 60.1 (88133) - https://sketch.com -->
    <title>mysql</title>
    <desc>Created with Sketch.</desc>
    <g id="Templates" stroke="none" stroke-width="1" fill="none" fill-rule="evenodd">
        <g id="Home---Marketing" transform="translate(-985.000000, -935.000000)" fill="#000000" fill-rule="nonzero">
            <g id="mysql" transform="translate(985.250000, 935.282258)">
                <path d="M27.626875,23.0621375 C25.990625,23.0177625 24.740625,23.1696375 23.671875,23.6208875 C23.368125,23.7490125 22.88375,23.7521375 22.834375,24.1327625 C23.00125,24.3077625 23.026875,24.5690125 23.16,24.7840125 C23.415,25.1971375 23.84625,25.7502625 24.23,26.0402625 C24.65,26.3571375 25.083125,26.6965125 25.533125,26.9708875 C26.33375,27.4590125 27.228125,27.7383875 27.999375,28.2271375 C28.45375,28.5152625 28.905,28.8783875 29.34875,29.2040125 C29.568125,29.3646375 29.715,29.6152625 30.0000084,29.7158875 C30.0000084,29.7002625 30.0000084,29.6852625 30.0000084,29.6696375 C29.850625,29.4790125 29.811875,29.2171375 29.674375,29.0183875 C29.473125,28.8171375 29.27125,28.6152625 29.069375,28.4133875 C28.478125,27.6283875 27.726875,26.9390125 26.92875,26.3658875 C26.2925,25.9090125 24.8675,25.2921375 24.601875,24.5508875 C24.58625,24.5352625 24.57125,24.5196375 24.555,24.5040125 C25.00625,24.4533875 25.535,24.2896375 25.95125,24.1783875 C26.650625,23.9908875 27.27625,24.0390125 27.99875,23.8527625 C28.324375,23.7596375 28.65,23.6665125 28.97625,23.5733875 C28.97625,23.5108875 28.97625,23.4496375 28.97625,23.3871375 C28.61125,23.0121375 28.350625,22.5165125 27.9525,22.1771375 C26.910625,21.2896375 25.773125,20.4033875 24.6025,19.6640125 C23.953125,19.2540125 23.150625,18.9877625 22.461875,18.6402625 C22.230625,18.5233875 21.82375,18.4627625 21.670625,18.2677625 C21.309375,17.8065125 21.111875,17.2227625 20.833125,16.6858875 C20.24875,15.5608875 19.675625,14.3327625 19.158125,13.1496375 C18.805,12.3427625 18.574375,11.5471375 18.134375,10.8227625 C16.02125,7.3490125 13.7475,5.2521375 10.224375,3.1915125 C9.475,2.7533875 8.571875,2.5802625 7.618125,2.3540125 C7.10625,2.3227625 6.594375,2.2921375 6.0825,2.2608875 C5.77,2.1302625 5.445,1.7483875 5.151875,1.5627625 C3.985,0.8252625 0.99125,-0.7784875 0.126875,1.3302625 C-0.41875,2.6608875 0.9425,3.9596375 1.429375,4.6340125 C1.77125,5.1071375 2.20875,5.6377625 2.453125,6.1696375 C2.61375,6.5190125 2.64125,6.8696375 2.77875,7.2402625 C3.116875,8.1515125 3.41125,9.1433875 3.84875,9.9858875 C4.07,10.4121375 4.31375,10.8608875 4.593125,11.2421375 C4.764375,11.4758875 5.058125,11.5790125 5.105,11.9402625 C4.8175,12.3421375 4.80125,12.9665125 4.64,13.4758875 C3.9125,15.7690125 4.186875,18.6190125 5.245,20.3165125 C5.569375,20.8377625 6.334375,21.9546375 7.385625,21.5265125 C8.305,21.1521375 8.1,19.9915125 8.363125,18.9671375 C8.4225,18.7346375 8.38625,18.5640125 8.5025,18.4090125 C8.5025,18.4246375 8.5025,18.4402625 8.5025,18.4552625 C8.781875,19.0133875 9.06125,19.5721375 9.34,20.1302625 C9.96,21.1283875 11.06,22.1721375 11.9925,22.8758875 C12.475625,23.2408875 12.85625,23.8721375 13.48125,24.0858875 C13.48125,24.0702625 13.48125,24.0552625 13.48125,24.0390125 C13.465625,24.0390125 13.45,24.0390125 13.434375,24.0390125 C13.313125,23.8502625 13.12375,23.7721375 12.969375,23.6202625 C12.605,23.2633875 12.2,22.8196375 11.899375,22.4102625 C11.05125,21.2590125 10.301875,19.9990125 9.619375,18.6877625 C9.293125,18.0615125 9.01,17.3708875 8.735,16.7333875 C8.629375,16.4877625 8.63,16.1158875 8.409375,15.9890125 C8.108125,16.4558875 7.665,16.8333875 7.431875,17.3852625 C7.059375,18.2665125 7.01125,19.3415125 6.87375,20.4565125 C6.791875,20.4858875 6.828125,20.4658875 6.780625,20.5027625 C6.1325,20.3465125 5.905,19.6790125 5.664375,19.1071375 C5.055,17.6596375 4.941875,15.3290125 5.478125,13.6627625 C5.616875,13.2315125 6.24375,11.8740125 5.99,11.4758875 C5.86875,11.0783875 5.469375,10.8490125 5.245625,10.5452625 C4.96875,10.1696375 4.6925,9.6758875 4.50125,9.2421375 C4.0025,8.1133875 3.77,6.8465125 3.245,5.7058875 C2.994375,5.1602625 2.57,4.6083875 2.22125,4.1240125 C1.835625,3.5871375 1.403125,3.1915125 1.104375,2.5415125 C0.998125,2.3108875 0.85375,1.9415125 1.01125,1.7040125 C1.06125,1.5440125 1.131875,1.4771375 1.290625,1.4246375 C1.560625,1.2165125 2.3125,1.4940125 2.593125,1.6108875 C3.339375,1.9208875 3.961875,2.2158875 4.594375,2.6346375 C4.898125,2.8358875 5.204375,3.2252625 5.57125,3.3327625 C5.710625,3.3327625 5.850625,3.3327625 5.99,3.3327625 C6.645,3.4833875 7.37875,3.3796375 7.990625,3.5652625 C9.0725,3.8940125 10.041875,4.4052625 10.921875,4.9615125 C13.60375,6.6552625 15.796875,9.0658875 17.296875,11.9415125 C17.538125,12.4046375 17.6425,12.8465125 17.855,13.3377625 C18.28375,14.3283875 18.824375,15.3471375 19.250625,16.3158875 C19.67625,17.2821375 20.09125,18.2571375 20.693125,19.0615125 C21.009375,19.4840125 22.231875,19.7108875 22.786875,19.9458875 C23.17625,20.1102625 23.81375,20.2821375 24.183125,20.5040125 C24.8875,20.9290125 25.57,21.4346375 26.230625,21.9002625 C26.56125,22.1315125 27.57625,22.6415125 27.626875,23.0621375 Z" id="Path"></path>
            </g>
        </g>
    </g>
</svg>