<?xml version="1.0" encoding="UTF-8"?>
<svg width="30px" height="31px" viewBox="0 0 30 31" version="1.1" xmlns="http://www.w3.org/2000/svg" xmlns:xlink="http://www.w3.org/1999/xlink">
    <!-- Generator: Sketch 60.1 (88133) - https://sketch.com -->
    <title>nextjs</title>
    <desc>Created with Sketch.</desc>
    <g id="Templates" stroke="none" stroke-width="1" fill="none" fill-rule="evenodd">
        <g id="Home---Marketing" transform="translate(-297.000000, -936.000000)" fill="#000000" fill-rule="nonzero">
            <g id="nextjs" transform="translate(297.000000, 936.250000)">
                <path d="M14.0175,0.008125 C13.953125,0.014375 13.748125,0.034375 13.563125,0.049375 C9.301875,0.433125 5.310625,2.73125 2.783125,6.265 C1.38564815,8.2045226 0.477192689,10.4528266 0.135,12.81875 C0.014375,13.6425 0,13.885625 0,15.003125 C0,16.12 0.014375,16.36375 0.135,17.1875 C0.95,22.82 4.95875,27.5525 10.395625,29.30625 C11.369375,29.619375 12.395625,29.83375 13.563125,29.9625 C14.0175,30.0125 15.981875,30.0125 16.436875,29.9625 C18.451875,29.74 20.158125,29.24125 21.841875,28.381875 C22.099375,28.250625 22.149375,28.215 22.114375,28.185625 C22.090625,28.168125 20.99125,26.693125 19.67125,24.910625 L17.2725,21.670625 L14.266875,17.2225 C12.613125,14.776875 11.251875,12.7775 11.240625,12.7775 C11.22875,12.774375 11.216875,14.750625 11.21125,17.16375 C11.2025,21.38875 11.199375,21.559375 11.146875,21.65875 C11.070625,21.8025 11.011875,21.86125 10.88875,21.925625 C10.795,21.9725 10.7125,21.981875 10.27,21.981875 L9.7625,21.981875 L9.6275,21.89625 C9.54408871,21.8439002 9.47630191,21.7700687 9.43125,21.6825 L9.369375,21.550625 L9.375625,15.67125 L9.384375,9.79 L9.475,9.675 C9.521875,9.61375 9.621875,9.534375 9.691875,9.49625 C9.8125,9.4375 9.859375,9.431875 10.366875,9.431875 C10.965,9.431875 11.064375,9.455625 11.22,9.625625 C11.26375,9.6725 12.89125,12.12375 14.83875,15.07625 C16.78625,18.02875 19.44875,22.060625 20.756875,24.04 L23.131875,27.6375 L23.251875,27.558125 C24.316875,26.86625 25.4425,25.88125 26.334375,24.855 C28.224542,22.6920787 29.4506421,20.029814 29.865625,17.1875 C29.985625,16.363125 30,16.12 30,15.003125 C30,13.885625 29.985625,13.6425 29.865,12.81875 C29.05,7.185625 25.04125,2.45375 19.604375,0.7 C18.645,0.389375 17.624375,0.175 16.480625,0.04625 C16.199375,0.016875 14.26125,-0.015625 14.018125,0.008125 L14.0175,0.008125 Z M20.158125,9.08 C20.2991282,9.15125346 20.4057933,9.2759211 20.454375,9.42625 C20.478125,9.5025 20.48375,11.1325 20.478125,14.80625 L20.469375,20.07875 L19.539375,18.65375 L18.606875,17.22875 L18.606875,13.39625 C18.606875,10.91875 18.61875,9.525625 18.63625,9.45875 C18.6785129,9.30089388 18.7835231,9.16720348 18.926875,9.08875 C19.046875,9.0275 19.090625,9.02125 19.551875,9.02125 C19.985625,9.02125 20.061875,9.0275 20.158125,9.08 L20.158125,9.08 Z" id="Shape"></path>
            </g>
        </g>
    </g>
</svg>