<?xml version="1.0" encoding="UTF-8"?>
<svg width="27px" height="30px" viewBox="0 0 27 30" version="1.1" xmlns="http://www.w3.org/2000/svg" xmlns:xlink="http://www.w3.org/1999/xlink">
    <!-- Generator: Sketch 60.1 (88133) - https://sketch.com -->
    <title>node</title>
    <desc>Created with Sketch.</desc>
    <g id="Templates" stroke="none" stroke-width="1" fill="none" fill-rule="evenodd">
        <g id="Home---Marketing" transform="translate(-607.000000, -936.000000)" fill="#000000" fill-rule="nonzero">
            <g id="node" transform="translate(607.000000, 936.000000)">
                <path d="M25.3689796,6.51183673 L14.6008163,0.288979592 C13.924898,-0.0967346939 13.0187755,-0.0967346939 12.3373469,0.288979592 L1.56795918,6.51183673 C0.870612245,6.91346939 0.438367347,7.66714286 0.438367347,8.47469388 L0.438367347,20.9026531 C0.438367347,21.7102041 0.870612245,22.4638776 1.56795918,22.8673469 L4.3922449,24.4928571 C5.76061224,25.1669388 6.25040816,25.1669388 6.87306122,25.1669388 C8.89836735,25.1669388 10.0616327,23.9418367 10.0616327,21.8057143 L10.0616327,9.53571429 C10.0616327,9.36244898 9.92020408,9.22530612 9.74938776,9.22530612 L8.38346939,9.22530612 C8.21020408,9.22530612 8.07061224,9.36183673 8.07061224,9.53571429 L8.07061224,21.8063265 C8.07061224,22.7534694 7.09040816,23.6957143 5.49,22.8955102 L2.53959184,21.1910204 C2.43612245,21.1346939 2.37,21.0220408 2.37,20.9032653 L2.37,8.47469388 C2.37,8.35653061 2.43612245,8.23959184 2.54081633,8.17959184 L13.3028571,1.9677551 C13.4032653,1.90959184 13.5355102,1.90959184 13.6346939,1.9677551 L24.3997959,8.17836735 C24.5026531,8.24020408 24.5669388,8.35346939 24.5669388,8.47530612 L24.5669388,20.9032653 C24.5669388,21.0220408 24.5026531,21.1377551 24.4022449,21.1946939 L13.6328571,27.4108163 C13.5410204,27.4665306 13.3995918,27.4665306 13.2991837,27.4108163 L10.5367347,25.7706122 C10.4546939,25.7222449 10.3487755,25.705102 10.2691837,25.7497959 C9.5044898,26.1832653 9.36,26.2408163 8.64367347,26.4893878 C8.46673469,26.5512245 8.20469388,26.6577551 8.74102041,26.9577551 L12.3367347,29.0853061 C12.6814286,29.284898 13.0732653,29.3877551 13.4669388,29.3877551 C13.8661224,29.3877551 14.2567347,29.284898 14.6008163,29.0853061 L25.3695918,22.8679592 C26.0669388,22.4620408 26.5010204,21.7108163 26.5010204,20.9032653 L26.5010204,8.47469388 C26.5004082,7.6677551 26.0663265,6.91530612 25.3689796,6.51183673 Z" id="Path"></path>
                <path d="M16.7932653,18.9342857 C13.9432653,18.9342857 13.3163265,18.2185714 13.1063265,16.8012245 C13.0818367,16.6493878 12.9526531,16.5373469 12.7971429,16.5373469 L11.404898,16.5373469 C11.2322449,16.5373469 11.0938776,16.675102 11.0938776,16.8477551 C11.0938776,18.6618367 12.0814286,20.8255102 16.7938776,20.8255102 C20.2065306,20.8255102 22.1626531,19.4816327 22.1626531,17.134898 C22.1626531,14.8089796 20.5904082,14.1893878 17.2812245,13.7516327 C13.9365306,13.3089796 13.5967347,13.0812245 13.5967347,12.297551 C13.5967347,11.6510204 13.8844898,10.7883673 16.3616327,10.7883673 C18.5742857,10.7883673 19.3891837,11.2646939 19.7246939,12.7567347 C19.7540816,12.8969388 19.8820408,12.9997959 20.0271429,12.9997959 L21.424898,12.9997959 C21.5118367,12.9997959 21.5938776,12.962449 21.6526531,12.9006122 C21.7114286,12.8344898 21.7426531,12.7493878 21.7346939,12.6612245 C21.5185714,10.0922449 19.8110204,8.89469388 16.3610204,8.89469388 C13.29,8.89469388 11.4587755,10.1902041 11.4587755,12.3636735 C11.4587755,14.7208163 13.2814286,15.3722449 16.2281633,15.6636735 C19.7540816,16.0089796 20.0277551,16.5238776 20.0277551,17.2181633 C20.0277551,18.4206122 19.0622449,18.9342857 16.7932653,18.9342857 Z" id="Path"></path>
            </g>
        </g>
    </g>
</svg>