<?xml version="1.0" encoding="UTF-8"?>
<svg width="30px" height="31px" viewBox="0 0 30 31" version="1.1" xmlns="http://www.w3.org/2000/svg" xmlns:xlink="http://www.w3.org/1999/xlink">
    <!-- Generator: Sketch 60.1 (88133) - https://sketch.com -->
    <title>postgresql</title>
    <desc>Created with Sketch.</desc>
    <g id="Templates" stroke="none" stroke-width="1" fill="none" fill-rule="evenodd">
        <g id="Home---Marketing" transform="translate(-941.000000, -935.000000)" fill="#000000">
            <g id="postgresql" transform="translate(941.000000, 935.282258)">
                <path d="M29.0798361,18.1436066 C28.9691803,17.4260656 28.3664754,16.9561475 27.6654098,16.9244262 C27.4116393,16.9128689 27.1539344,16.9394262 26.9009016,16.9716393 C26.5952459,17.0104918 26.2932787,17.0793443 25.9883607,17.1248361 C25.777623,17.1563115 25.5639344,17.1708197 25.3534426,17.192459 L25.3482787,17.1651639 C25.7412295,16.4230328 26.1506557,15.6890164 26.522459,14.9363115 C26.807459,14.3589344 27.0513934,13.7606557 27.3034426,13.1672951 C27.7204918,12.1841803 28.0536885,11.1705738 28.3295902,10.1404918 C28.5939344,9.15418033 28.8201639,8.15704918 28.8912295,7.13385246 C28.9197541,6.72516393 28.9394262,6.3147541 28.9372131,5.90557377 C28.9352459,5.5792623 28.900082,5.25245902 28.867377,4.92713115 C28.8304918,4.55434426 28.7178689,4.20098361 28.5619672,3.86090164 C28.3563934,3.41286885 28.0377049,3.0452459 27.7022951,2.69606557 C27.4337705,2.41647541 27.1384426,2.16172131 26.8455738,1.90721311 C26.4280328,1.54401639 25.9586066,1.25409836 25.4709836,0.996639344 C24.9169672,0.704016393 24.3346721,0.475081967 23.727541,0.320409836 C23.3604098,0.226721311 22.984918,0.157131148 22.6131148,0.0828688525 C22.4793443,0.0558196721 22.3453279,7.54951657e-15 22.2115574,7.54951657e-15 L19.6932787,7.54951657e-15 C19.6022951,7.54951657e-15 19.5120492,0.0469672131 19.4203279,0.057295082 C18.817377,0.12442623 18.2215574,0.238032787 17.6429508,0.417295082 C17.4265574,0.48442623 17.2288525,0.442131148 17.0232787,0.423196721 C16.8656557,0.408688525 16.7107377,0.366393443 16.5531148,0.35852459 C15.952623,0.32852459 15.3513934,0.284508197 14.7511475,0.290901639 C14.1759836,0.296803279 13.6067213,0.39147541 13.05,0.549590164 C12.5840164,0.681885246 12.1281148,0.843442623 11.7105738,1.08836066 C11.5318033,1.19311475 11.3901639,1.17344262 11.2052459,1.12008197 C10.5838525,0.940819672 9.95803279,0.772377049 9.32680328,0.630983607 C8.93336066,0.54295082 8.52885246,0.499180328 8.12704918,0.457131148 C7.74196721,0.41704918 7.35393443,0.39295082 6.96688525,0.384836066 C6.58868852,0.376721311 6.20778689,0.376967213 5.83131148,0.410409836 C5.23155738,0.463770492 4.64311475,0.585737705 4.07114754,0.782459016 C3.43598361,1.00081967 2.85368852,1.31729508 2.32868852,1.73286885 C1.79581967,2.15459016 1.36844262,2.6695082 1.02467213,3.25745902 C0.662459016,3.87786885 0.414098361,4.54204918 0.259672131,5.23967213 C0.176065574,5.61762295 0.123196721,6.00614754 0.0659016393,6.39 C0.0479508197,6.5095082 0.245901639,6.62901639 1.86517468e-14,6.74803279 L1.86517468e-14,8.41868852 C0.245901639,8.52983607 0.051147541,8.6407377 0.0654098361,8.75213115 C0.0995901639,9.01991803 0.129836066,9.28991803 0.175081967,9.5557377 C0.246639344,9.97647541 0.33147541,10.3959836 0.418032787,10.8140164 C0.538770492,11.3980328 0.66442623,11.9815574 0.798196721,12.562623 C0.89557377,12.9855738 1.00647541,13.4060656 1.12254098,13.8243443 C1.29983607,14.4631967 1.47442623,15.1032787 1.67483607,15.735 C1.86098361,16.3219672 2.07418033,16.9005738 2.28565574,17.4791803 C2.57852459,18.2795902 2.92918033,19.0541803 3.34967213,19.7965574 C3.71336066,20.4393443 4.12893443,21.0413115 4.68639344,21.5365574 C5.05377049,21.8628689 5.46270492,22.1136885 5.93877049,22.2390984 C6.31278689,22.337459 6.69295082,22.3492623 7.07581967,22.2708197 C7.51967213,22.1798361 7.91262295,21.9887705 8.26204918,21.702541 C8.30213115,21.6695902 8.34614754,21.6445082 8.39360656,21.705 C8.57434426,21.9339344 8.81631148,22.0866393 9.06934426,22.2186885 C9.75221311,22.5747541 10.4963115,22.6814754 11.2522131,22.725 C11.4351639,22.7355738 11.620082,22.7092623 11.8045082,22.7040984 C12.1637705,22.6942623 12.5129508,22.6241803 12.8564754,22.5248361 C13.0364754,22.4727049 13.2122951,22.4065574 13.3954918,22.3448361 C13.405082,22.5398361 13.417377,22.7277049 13.4230328,22.9155738 L13.4486066,23.94 C13.4532787,24.0959016 13.4594262,24.2522951 13.4739344,24.407459 C13.5110656,24.807541 13.547459,25.2078689 13.5951639,25.6067213 C13.6283607,25.8816393 13.6627869,26.1587705 13.727459,26.4270492 C13.857541,26.9687705 14.0338525,27.4962295 14.2581148,28.0077049 C14.4781967,28.5095902 14.7946721,28.9332787 15.2171311,29.2827049 C15.7630328,29.7341803 16.4028689,29.9267213 17.0938525,29.962377 C17.3795902,29.977377 17.6734426,29.9633607 17.9547541,29.9122131 C18.4005738,29.8313115 18.8454098,29.7295082 19.2794262,29.5986885 C20.162459,29.3321311 20.9257377,28.8718033 21.4959836,28.1279508 C21.8205738,27.7040164 22.0871311,27.2454098 22.2582787,26.7390984 C22.3994262,26.3208197 22.532459,25.8983607 22.6381967,25.4702459 C22.7218033,25.1328689 22.7631148,24.784918 22.8140164,24.4404098 C22.8477049,24.212459 22.8678689,23.9822951 22.8890164,23.752623 C22.9234426,23.3795902 22.9586066,23.0068033 22.9834426,22.6330328 C23.0006557,22.3728689 22.999918,22.1114754 23.0102459,21.8508197 C23.0134426,21.7713934 23.0262295,21.692459 23.0336066,21.6132787 C23.0404918,21.54 23.077377,21.5146721 23.1521311,21.5159016 C23.4154918,21.5198361 23.6793443,21.5267213 23.9419672,21.514918 C24.2363115,21.5016393 24.5333607,21.4890984 24.8230328,21.4404098 C25.2354098,21.3713115 25.6458197,21.2840164 26.050082,21.1780328 C26.5278689,21.0531148 26.9660656,20.8293443 27.3877869,20.5743443 C27.8790984,20.277541 28.3268852,19.9293443 28.6903279,19.4808197 C29.0063115,19.0895902 29.1560656,18.637377 29.0798361,18.1436066 L29.0798361,18.1436066 Z M28.2408197,18.385082 C28.2245902,18.610082 28.1215574,18.8028689 27.9720492,18.967623 C27.2665574,19.7454098 26.3815574,20.2172951 25.3691803,20.4496721 C24.9845902,20.5377049 24.5877049,20.5834426 24.1940164,20.6198361 C23.8588525,20.6508197 23.5187705,20.6559836 23.182377,20.6436885 C22.935,20.6343443 22.6895902,20.5777869 22.4368033,20.5413934 C22.4114754,20.772541 22.387377,21.0132787 22.3581148,21.2535246 L22.2403279,22.1744262 C22.2046721,22.4663115 22.1768852,22.7591803 22.1402459,23.0508197 C22.1043443,23.3338525 22.0595902,23.6159016 22.0219672,23.8989344 C21.9868033,24.162541 21.9609836,24.427377 21.9218852,24.6904918 C21.8616393,25.0937705 21.8040984,25.4980328 21.7254098,25.8981148 C21.6309836,26.3763934 21.4861475,26.8396721 21.2498361,27.2709836 C20.9616393,27.797459 20.5529508,28.1985246 20.0328689,28.4955738 C19.4968033,28.8019672 18.9108197,28.9613115 18.3167213,29.0945902 C17.8962295,29.1890164 17.4629508,29.2045082 17.0370492,29.1661475 C16.2983607,29.0992623 15.6678689,28.7832787 15.1913115,28.2105738 C14.7363934,27.6639344 14.4285246,27.037377 14.3183607,26.3281967 C14.2657377,25.9910656 14.2278689,25.6509836 14.197623,25.3111475 C14.1641803,24.9331967 14.1413115,24.5540164 14.1240984,24.175082 C14.1022131,23.6938525 14.0862295,23.212623 14.0756557,22.7313934 C14.062623,22.1397541 14.0584426,21.5481148 14.050082,20.9564754 L14.0486066,20.9338525 C13.747623,21.1143443 13.4518033,21.3120492 13.1380328,21.4748361 C12.7706557,21.6656557 12.3715574,21.7763115 11.9581967,21.807541 C11.6340984,21.8321311 11.3058197,21.8545082 10.9831967,21.8286885 C10.4542623,21.7861475 9.92581967,21.7032787 9.45221311,21.4428689 C9.26016393,21.3371311 9.0597541,21.2085246 8.92745902,21.0395902 C8.6102459,20.6348361 8.76221311,20.1233607 9.2404918,19.8772131 C9.57098361,19.7068033 9.93172131,19.6357377 10.29,19.5528689 C10.6013115,19.4808197 10.9111475,19.3989344 11.2148361,19.2998361 C11.5153279,19.2014754 11.704918,18.9577869 11.8920492,18.7187705 L12.1886066,18.337377 C12.064918,18.3243443 11.9483607,18.3110656 11.8318033,18.3002459 C11.4779508,18.2668033 11.1403279,18.1694262 10.817459,18.0263115 C10.5410656,17.9040984 10.5368852,17.8908197 10.3342623,18.1106557 C9.99590164,18.4780328 9.66688525,18.8540164 9.33540984,19.227541 C9.09147541,19.5022131 8.84901639,19.7786066 8.60631148,20.0540164 C8.36581967,20.3264754 8.14057377,20.6144262 7.88163934,20.8679508 C7.49704918,21.2444262 7.03352459,21.4709016 6.4804918,21.4453279 C6.12565574,21.4290984 5.80081967,21.3046721 5.50868852,21.1013115 C4.9057377,20.6813115 4.4995082,20.0938525 4.12967213,19.4768852 C3.65581967,18.6863115 3.29213115,17.8440984 2.98081967,16.9787705 C2.76540984,16.3807377 2.54901639,15.7822131 2.36090164,15.1755738 C2.15655738,14.5163115 1.97729508,13.8486885 1.80098361,13.1813115 C1.66770492,12.6777049 1.54942623,12.169918 1.43655738,11.6611475 C1.30844262,11.082541 1.1852459,10.5029508 1.07655738,9.92040984 C1.00327869,9.52721311 0.960737705,9.12836066 0.90147541,8.73245902 C0.821557377,8.19885246 0.806803279,7.66032787 0.835819672,7.1245082 C0.861639344,6.64180328 0.930983607,6.16032787 0.999836066,5.68081967 C1.0952459,5.01737705 1.31385246,4.39131148 1.62836066,3.80016393 C1.82090164,3.43795082 2.05991803,3.10868852 2.33631148,2.80278689 C2.79,2.30065574 3.33909836,1.93770492 3.94991803,1.6652459 C4.37680328,1.47491803 4.82778689,1.36032787 5.28737705,1.27081967 C5.9695082,1.13803279 6.65778689,1.14319672 7.34631148,1.15745902 C7.64729508,1.16360656 7.94704918,1.21844262 8.24778689,1.24819672 C8.8952459,1.31262295 9.52991803,1.44885246 10.1564754,1.61704918 C10.6131148,1.7395082 11.0604098,1.89811475 11.5133607,2.03581967 C11.5588525,2.04959016 11.6254918,2.04836066 11.662623,2.02401639 C12.2763934,1.62344262 12.9472131,1.35909836 13.6605738,1.20786885 C13.9313115,1.15057377 14.2106557,1.1254918 14.487541,1.10778689 C14.8241803,1.08639344 15.1635246,1.06672131 15.4994262,1.08614754 C15.9031967,1.1092623 16.305,1.16877049 16.7063115,1.22385246 C16.9010656,1.25040984 17.0911475,1.31803279 17.2863934,1.33647541 C17.3798361,1.34532787 17.4789344,1.27696721 17.5777869,1.25409836 C18.0816393,1.13778689 18.5832787,1.00819672 19.0915574,0.916229508 C19.47,0.847868852 19.8565574,0.815655738 20.2413934,0.79352459 C20.6704918,0.768934426 21.1027869,0.750983607 21.5316393,0.771639344 C22.0738525,0.797704918 22.6121311,0.874918033 23.1435246,0.998606557 C23.8018033,1.15180328 24.4332787,1.37434426 25.0335246,1.68319672 C25.4820492,1.91385246 25.9084426,2.18139344 26.2922951,2.51040984 C26.5438525,2.72631148 26.8013115,2.9395082 27.0285246,3.18 C27.3088525,3.47655738 27.5948361,3.77336066 27.7706557,4.15327869 C27.9029508,4.4397541 27.997377,4.73631148 28.0234426,5.05008197 C28.0559016,5.44008197 28.0952459,5.83155738 28.0915574,6.22204918 C28.0881148,6.59557377 28.0372131,6.96885246 28.0010656,7.34139344 C27.9189344,8.1907377 27.7342623,9.02163934 27.51,9.84147541 C27.3245902,10.5186885 27.1079508,11.1885246 26.8733607,11.8504918 C26.6572131,12.4605738 26.4078689,13.0595902 26.1558197,13.6561475 C25.9696721,14.0972951 25.7692623,14.5337705 25.5513934,14.9601639 C25.1390164,15.7681967 24.7101639,16.5678689 24.2141803,17.3289344 C24.1286066,17.4604918 24.047459,17.5952459 23.9638525,17.7295082 C24.1802459,17.8755738 24.4254098,17.9269672 24.6722951,17.9535246 C24.9071311,17.9790984 25.1466393,17.9943443 25.3812295,17.9768852 C25.7567213,17.9490984 26.1309836,17.8954918 26.5042623,17.8431148 C26.8740984,17.7914754 27.2365574,17.6862295 27.6162295,17.7140164 C27.9954098,17.7415574 28.2666393,18.0297541 28.2408197,18.385082 L28.2408197,18.385082 Z M22.8277869,17.5605738 C22.6667213,17.352541 22.502459,17.1469672 22.3448361,16.9364754 C22.097459,16.6059836 21.9196721,16.2368852 21.7411475,15.8660656 C21.5719672,15.5146721 21.3644262,15.1819672 21.1861475,14.8345082 C20.875082,14.2283607 20.5583607,13.6241803 20.2718852,13.0062295 C19.9116393,12.229918 19.627623,11.4260656 19.5381148,10.5661475 C19.5002459,10.2022131 19.4906557,9.83877049 19.5641803,9.47827869 C19.6819672,8.90262295 19.9827049,8.45237705 20.4882787,8.14352459 C20.9572131,7.85704918 21.4797541,7.76459016 22.015082,7.73557377 C22.3472951,7.71762295 22.6809836,7.73237705 23.0257377,7.73237705 L23.0141803,7.67409836 C22.7997541,7.22581967 22.5993443,6.76991803 22.3647541,6.33221311 C22.0337705,5.7145082 21.6103279,5.15754098 21.1386885,4.64114754 C20.7892623,4.25877049 20.4108197,3.90393443 19.9962295,3.59040984 C19.5885246,3.28180328 19.1589344,3.00614754 18.7005738,2.78065574 C18.1539344,2.51188525 17.5846721,2.30409836 16.987377,2.17155738 C16.4134426,2.04418033 15.8358197,1.96622951 15.2471311,1.95983607 C14.745,1.95442623 14.2460656,1.97704918 13.7569672,2.09040984 C13.0187705,2.26131148 12.3435246,2.5652459 11.7560656,3.05754098 C11.4280328,3.33245902 11.1418033,3.64106557 10.8912295,3.98459016 C10.5971311,4.38860656 10.3598361,4.82483607 10.1569672,5.28221311 C9.87860656,5.9097541 9.68754098,6.56286885 9.55696721,7.23418033 C9.49155738,7.56885246 9.44040984,7.90647541 9.38827869,8.24385246 C9.37008197,8.36188525 9.36860656,8.48262295 9.35803279,8.61786885 C9.44877049,8.57065574 9.51418033,8.5342623 9.58106557,8.50180328 L9.79868852,8.40418033 C10.5346721,8.06754098 11.2972131,7.85090164 12.1168033,7.8757377 C12.465,7.88631148 12.7981967,7.95516393 13.1077869,8.10762295 C13.7016393,8.4004918 14.0490984,8.89844262 14.200082,9.52868852 C14.3043443,9.96368852 14.3756557,10.4072951 14.445,10.8496721 C14.4993443,11.1951639 14.554918,11.5443443 14.5613115,11.8927869 C14.5704098,12.4020492 14.5445902,12.9122951 14.5168033,13.4213115 C14.4931967,13.855082 14.4027049,14.2819672 14.2512295,14.6867213 C13.9758197,15.4227049 13.6689344,16.1466393 13.3822131,16.8784426 C13.287541,17.1201639 13.2147541,17.3704918 13.1252459,17.6363115 C13.2634426,17.6363115 13.3755738,17.6353279 13.4877049,17.6368033 C13.5314754,17.637541 13.5762295,17.6387705 13.6185246,17.6488525 C13.9480328,17.7265574 14.2337705,17.8758197 14.4681148,18.1293443 C14.7806557,18.4667213 14.9446721,18.8604098 14.9530328,19.3160656 C14.9577049,19.5686066 14.9311475,19.8218852 14.932377,20.0744262 C14.937541,21.2513115 14.9463934,22.4281967 14.9562295,23.6048361 C14.9579508,23.7971311 14.967541,23.9896721 14.9813115,24.1817213 C15.010082,24.5837705 15.0390984,24.9860656 15.0784426,25.3871311 C15.1059836,25.6716393 15.1443443,25.9556557 15.1893443,26.2381967 C15.2530328,26.6385246 15.4352459,26.9948361 15.6420492,27.3354098 C15.820082,27.6282787 16.0514754,27.8771311 16.3563934,28.0487705 C16.8745082,28.3404098 17.432459,28.3647541 17.9948361,28.2572951 C18.3747541,28.1847541 18.7477869,28.0681967 19.1166393,27.9479508 C19.4803279,27.8296721 19.8088525,27.6359016 20.0847541,27.3690984 C20.3431967,27.1185246 20.5266393,26.8131148 20.6503279,26.4759836 C20.8903279,25.8221311 20.965082,25.1336066 21.0644262,24.4504918 C21.1015574,24.1947541 21.1337705,23.9382787 21.1677049,23.6820492 C21.2063115,23.3904098 21.2454098,23.0990164 21.2827869,22.807623 C21.3103279,22.5904918 21.3354098,22.3728689 21.3619672,22.1557377 C21.3998361,21.8439344 21.439918,21.532377 21.4760656,21.2203279 C21.5038525,20.9790984 21.527459,20.7368852 21.5520492,20.4951639 C21.5837705,20.1863115 21.6179508,19.877459 21.6452459,19.5681148 C21.6663934,19.3332787 21.6577869,19.0942623 21.6993443,18.8638525 C21.7758197,18.4413934 21.9754918,18.0818852 22.35,17.8495082 C22.5066393,17.752377 22.6834426,17.6884426 22.8572951,17.6063115 L22.8277869,17.5605738 L22.8277869,17.5605738 Z M8.66459016,15.8264754 C8.47745902,15.3833607 8.36508197,14.9215574 8.33163934,14.4440164 C8.30016393,13.9952459 8.35352459,13.5481967 8.3995082,13.1013934 C8.4442623,12.6686066 8.48139344,12.2338525 8.49442623,11.7990984 C8.51606557,11.0845082 8.46786885,10.3709016 8.43368852,9.65680328 C8.41303279,9.23163934 8.46245902,8.80131148 8.50032787,8.37516393 C8.5345082,7.99131148 8.57704918,7.60647541 8.64959016,7.22827869 C8.77131148,6.59360656 8.93286885,5.96803279 9.16254098,5.36163934 C9.38065574,4.78672131 9.63122951,4.22680328 9.98508197,3.72270492 C10.227541,3.37696721 10.5027049,3.05385246 10.7670492,2.71598361 L10.6886066,2.68819672 C9.82844262,2.415 8.9542623,2.20155738 8.0552459,2.10836066 C7.63008197,2.06434426 7.20344262,2.03852459 6.77704918,2.01319672 C6.64622951,2.00532787 6.51344262,2.02303279 6.38213115,2.03557377 C6.05704918,2.06655738 5.72803279,2.07885246 5.40811475,2.13983607 C4.86368852,2.24336066 4.34139344,2.41745902 3.85770492,2.70098361 C3.42344262,2.9554918 3.05877049,3.2845082 2.75336066,3.67918033 C2.41598361,4.11491803 2.18901639,4.60770492 2.02598361,5.13319672 C1.83344262,5.75311475 1.74172131,6.39098361 1.71688525,7.0347541 C1.6952459,7.59909836 1.68442623,8.16663934 1.78180328,8.72877049 C1.85434426,9.14729508 1.90278689,9.5702459 1.98270492,9.98704918 C2.09163934,10.5553279 2.20844262,11.122377 2.34344262,11.6847541 C2.53647541,12.4898361 2.7292623,13.2961475 2.95795082,14.0913934 C3.17680328,14.8534426 3.42368852,15.6086066 3.69122951,16.3546721 C3.91008197,16.9635246 4.16311475,17.5610656 4.42967213,18.1507377 C4.60327869,18.5348361 4.81352459,18.9044262 5.03385246,19.2641803 C5.26819672,19.6460656 5.5347541,20.0085246 5.89647541,20.2856557 C6.35286885,20.6355738 6.70622951,20.689918 7.17,20.3060656 C7.36868852,20.1415574 7.53663934,19.9384426 7.7095082,19.744918 C7.98418033,19.437541 8.2492623,19.1218033 8.52270492,18.8134426 C8.87090164,18.4204918 9.22352459,18.0317213 9.57344262,17.6407377 C9.64745902,17.5581148 9.71852459,17.4730328 9.79057377,17.3894262 L9.67155738,17.284918 C9.23655738,16.8671311 8.89967213,16.3827049 8.66459016,15.8264754 L8.66459016,15.8264754 Z M21.8665574,4.12918033 C22.1508197,4.46262295 22.4259836,4.80590164 22.6802459,5.16295082 C23.1720492,5.85368852 23.565,6.5995082 23.8544262,7.39745902 C23.982541,7.74909836 24.0848361,8.10418033 24.0390984,8.48901639 C24.007377,8.75852459 24.010082,9.03196721 23.9862295,9.30295082 C23.9663115,9.52844262 23.9306557,9.75270492 23.9013934,9.97745902 C23.857623,10.3163115 23.7941803,10.6541803 23.7752459,10.9945082 C23.7572951,11.3183607 23.7759836,11.6456557 23.7963934,11.9702459 C23.8170492,12.3 23.8615574,12.6282787 23.8918033,12.957541 C23.9259836,13.3308197 23.9719672,13.7040984 23.982541,14.0781148 C23.9911475,14.3852459 23.9638525,14.6943443 23.9370492,15.0009836 C23.905082,15.3703279 23.8113934,15.7278689 23.6717213,16.0709016 C23.5736066,16.312377 23.4563115,16.5464754 23.3454098,16.7881967 L23.389918,16.8354098 L23.457541,16.8877869 L23.5256557,16.7658197 C24.1008197,15.8589344 24.612541,14.9171311 25.0556557,13.9396721 C25.3406557,13.3101639 25.6077049,12.6718033 25.8639344,12.03 C26.2632787,11.0306557 26.5792623,10.0032787 26.8236885,8.9554918 C26.9333607,8.48508197 27.0172131,8.00754098 27.0917213,7.53 C27.1497541,7.15672131 27.1981967,6.77901639 27.2090164,6.40229508 C27.2205738,6.00270492 27.1984426,5.59991803 27.1615574,5.20131148 C27.1340164,4.90032787 27.0597541,4.59737705 26.8711475,4.35270492 C26.5679508,3.95877049 26.2406557,3.58204918 25.8381148,3.28401639 C25.4992623,3.03295082 25.1616393,2.7754918 24.7979508,2.5642623 C24.2213115,2.22983607 23.5972131,2.00704918 22.945082,1.85532787 C22.3086885,1.70704918 21.6639344,1.64311475 21.015,1.62959016 C20.632377,1.62147541 20.2480328,1.66254098 19.8661475,1.69844262 C19.5201639,1.73090164 19.1763934,1.78622951 18.8279508,1.83196721 C19.2017213,2.04221311 19.5703279,2.22909836 19.9180328,2.44942623 C20.6490984,2.91245902 21.3041803,3.46967213 21.8665574,4.12918033 L21.8665574,4.12918033 Z M12.3686066,17.0936066 C12.604918,16.3379508 12.9268033,15.6164754 13.2386066,14.8905738 C13.4913934,14.3018852 13.6295902,13.6817213 13.6755738,13.0448361 C13.6984426,12.7308197 13.6920492,12.4128689 13.6765574,12.0978689 C13.6590984,11.7479508 13.6310656,11.3970492 13.5801639,11.0505738 C13.5147541,10.6077049 13.4402459,10.1645902 13.3354918,9.72983607 C13.2218852,9.25942623 12.9354098,8.93188525 12.4445902,8.81114754 C12.1455738,8.73762295 11.8485246,8.74057377 11.5463115,8.78827869 C10.8081148,8.90459016 10.132377,9.17655738 9.50286885,9.57491803 C9.37622951,9.65508197 9.30663934,9.7197541 9.32852459,9.90147541 C9.3747541,10.2863115 9.38483607,10.6772951 9.38311475,11.0658197 C9.38065574,11.6156557 9.35729508,12.1654918 9.33639344,12.715082 C9.3295082,12.8940984 9.30368852,13.0721311 9.2845082,13.2504098 C9.255,13.5233607 9.19819672,13.7960656 9.19987979,14.0685246 C9.20163934,14.3493443 9.23040984,14.6368033 9.29852459,14.9087705 C9.51491803,15.7711475 9.97327869,16.4768852 10.7245082,16.9748361 C11.1865574,17.2809836 11.6977869,17.4354098 12.2589344,17.4646721 C12.2970492,17.3358197 12.3309836,17.2140984 12.3686066,17.0936066 Z M11.4868033,9.69516393 C11.3879508,9.48762295 11.4445082,9.3157377 11.6736885,9.23606557 C11.7295082,9.21639344 11.7870492,9.1954918 11.845082,9.18983607 C11.9247541,9.18196721 12.0059016,9.18786885 12.0865574,9.18786885 C12.3772131,9.18934426 12.6568033,9.22991803 12.8968033,9.41483607 C13.0507377,9.53336066 13.0920492,9.6907377 12.992459,9.85229508 C12.8510656,10.0814754 12.6354098,10.1965574 12.3705738,10.2186885 C11.9532787,10.2533607 11.6604098,10.0588525 11.4868033,9.69516393 Z M23.0540164,9.61942623 C23.087459,9.34303279 23.1142623,9.06590164 23.1484426,8.7895082 C23.1622131,8.67836066 23.1036885,8.64836066 23.0104918,8.64565574 C22.717377,8.63754098 22.4242623,8.62721311 22.1311475,8.62180328 C21.8006557,8.61590164 21.4790164,8.66901639 21.1731148,8.79467213 C20.8337705,8.93434426 20.5753279,9.15811475 20.4698361,9.52745902 C20.3911475,9.80286885 20.37,10.0780328 20.3977869,10.3659836 C20.440082,10.804918 20.537459,11.2308197 20.6911475,11.6387705 C20.8962295,12.184918 21.1109016,12.7308197 21.367377,13.2540984 C21.7148361,13.962541 22.1080328,14.6483607 22.4771311,15.3459836 C22.5757377,15.5321311 22.6586066,15.7263934 22.7613934,15.9437705 C22.9765574,15.4881148 23.0815574,15.0319672 23.0936066,14.5613115 C23.1036885,14.1654098 23.0719672,13.7677869 23.0488525,13.3716393 C23.0343443,13.1291803 23.0001639,12.8881967 22.9765574,12.6462295 C22.9436066,12.3090984 22.8936885,11.9722131 22.8860656,11.6343443 C22.8784426,11.2908197 22.9027869,10.9453279 22.9322951,10.6022951 C22.960082,10.2732787 23.0144262,9.94696721 23.0540164,9.61942623 L23.0540164,9.61942623 Z M22.3927869,9.35336066 C22.2838525,9.65409836 22.0509836,9.82377049 21.7490164,9.87368852 C21.467459,9.91991803 21.2208197,9.81590164 21.037377,9.59139344 C20.9068033,9.43155738 20.9567213,9.24221311 21.152459,9.1342623 C21.3772131,9.00983607 21.6243443,8.97836066 21.9157377,8.95942623 C21.994918,8.97393443 22.1141803,8.98598361 22.227541,9.01844262 C22.3920492,9.06491803 22.4527869,9.18860656 22.3927869,9.35336066 Z M13.682459,18.6140164 C13.5213934,18.482459 13.3084426,18.4748361 13.1552459,18.6191803 C12.9651639,18.7986885 12.7979508,19.0040164 12.6307377,19.2063934 C12.4377049,19.4402459 12.2567213,19.6834426 12.007623,19.8646721 C11.6451639,20.1280328 11.2227049,20.2372131 10.7980328,20.3404918 C10.4604098,20.422623 10.1213115,20.4988525 9.78270492,20.5777869 L9.77852459,20.6215574 C9.87909836,20.6680328 9.97647541,20.7260656 10.0812295,20.7592623 C10.597623,20.9227869 11.1228689,21.0041803 11.6685246,20.9579508 C12.062459,20.9245082 12.4377049,20.8386885 12.7932787,20.67 C13.282623,20.4381148 13.6590984,20.0707377 13.9792623,19.6433607 C14.0328689,19.5720492 14.0572131,19.4665574 14.0636066,19.3745902 C14.0854918,19.0497541 13.9204918,18.8082787 13.682459,18.6140164 L13.682459,18.6140164 Z M26.4081148,18.7433607 C25.992541,18.7878689 25.5764754,18.835082 25.1596721,18.8589344 C24.9585246,18.8704918 24.7544262,18.8321311 24.5513115,18.8156557 C24.2107377,18.7881148 23.8782787,18.712377 23.5903279,18.5304098 C23.4236066,18.4254098 23.2851639,18.4136066 23.1081148,18.4731148 C22.8553279,18.5581967 22.6490164,18.687541 22.5880328,18.9614754 C22.5464754,19.1466393 22.5314754,19.3384426 22.5147541,19.5280328 C22.5115574,19.5614754 22.5533607,19.6229508 22.5853279,19.6313115 C22.7803279,19.6827049 22.9763115,19.7434426 23.1757377,19.7613934 C23.4206557,19.7835246 23.67,19.7763934 23.9166393,19.7640984 C24.1829508,19.7508197 24.4509836,19.7336066 24.7133607,19.6893443 C25.3318033,19.5855738 25.930082,19.4163934 26.4614754,19.0657377 C26.6530328,18.9390984 26.8428689,18.8097541 27.0331967,18.6816393 L27.017459,18.6545902 C26.8143443,18.6848361 26.6122131,18.7217213 26.4081148,18.7433607 L26.4081148,18.7433607 Z" id="Shape"></path>
            </g>
        </g>
    </g>
</svg>