<?xml version="1.0" encoding="UTF-8"?>
<svg width="30px" height="30px" viewBox="0 0 30 30" version="1.1" xmlns="http://www.w3.org/2000/svg" xmlns:xlink="http://www.w3.org/1999/xlink">
    <!-- Generator: Sketch 60.1 (88133) - https://sketch.com -->
    <title>python</title>
    <desc>Created with Sketch.</desc>
    <g id="Templates" stroke="none" stroke-width="1" fill="none" fill-rule="evenodd">
        <g id="Home---Marketing" transform="translate(-766.000000, -936.000000)" fill="#000000" fill-rule="nonzero">
            <g id="python" transform="translate(765.883268, 936.000000)">
                <path d="M11.403125,14.464375 L18.551875,14.464375 C20.541875,14.464375 22.130625,12.82625 22.130625,10.8275 L22.130625,4.0125 C22.130625,2.073125 20.49375,0.61625 18.551875,0.2925 C17.3225,0.0875 16.046875,-0.005625 14.823125,-3.12331541e-16 C13.6,0.00625 12.43125,0.110625 11.403125,0.2925 C8.374375,0.8275 7.825,1.9475 7.825,4.0125 L7.825,6.74 L14.981875,6.74 L14.981875,7.649375 L7.825,7.649375 L5.13875,7.649375 C3.05875,7.649375 1.2375,8.899375 0.6675,11.278125 C0.01,14.004375 -0.01875,15.705 0.6675,18.551875 C1.17625,20.67125 2.39125,22.180625 4.47125,22.180625 L6.931875,22.180625 L6.931875,18.910625 C6.931875,16.54875 8.97625,14.464375 11.403125,14.464375 Z M10.953125,4.921875 C10.21125,4.921875 9.61,4.31375 9.61,3.561875 C9.61,2.8075 10.21125,2.19375 10.953125,2.19375 C11.6925,2.19375 12.29625,2.8075 12.29625,3.561875 C12.29625,4.31375 11.691875,4.921875 10.953125,4.921875 Z" id="Shape"></path>
                <path d="M29.2875,11.278125 C28.773125,9.2075 27.791875,7.649375 25.70875,7.649375 L23.023125,7.649375 L23.023125,7.649375 L23.023125,10.8275 C23.023125,13.29125 20.93375,15.365 18.551875,15.365 L11.403125,15.365 C9.445,15.365 7.824375,17.040625 7.824375,19.001875 L7.824375,25.816875 C7.824375,27.75625 9.510625,28.8975 11.403125,29.45375 C13.66875,30.12 15.84125,30.240625 18.551875,29.45375 C20.35375,28.931875 22.130625,27.8825 22.130625,25.816875 L22.130625,23.08875 L14.981875,23.08875 L14.981875,22.179375 L22.130625,22.179375 L25.70875,22.179375 C27.78875,22.179375 28.56375,20.72875 29.2875,18.550625 C30.035,16.31 30.003125,14.15375 29.2875,11.278125 Z M19.0025,24.908125 C19.744375,24.908125 20.345625,25.515625 20.345625,26.268125 C20.345625,27.0225 19.744375,27.63625 19.0025,27.63625 C18.263125,27.63625 17.659375,27.0225 17.659375,26.268125 C17.659375,25.515625 18.263125,24.908125 19.0025,24.908125 Z" id="Shape"></path>
            </g>
        </g>
    </g>
</svg>