<?xml version="1.0" encoding="UTF-8"?>
<svg width="30px" height="28px" viewBox="0 0 30 28" version="1.1" xmlns="http://www.w3.org/2000/svg" xmlns:xlink="http://www.w3.org/1999/xlink">
    <!-- Generator: Sketch 60.1 (88133) - https://sketch.com -->
    <title>react</title>
    <desc>Created with Sketch.</desc>
    <g id="Templates" stroke="none" stroke-width="1" fill="none" fill-rule="evenodd">
        <g id="Home---Marketing" transform="translate(-257.000000, -937.000000)" fill="#000000" fill-rule="nonzero">
            <g id="react" transform="translate(257.000000, 937.890625)">
                <path d="M24.6660212,8.65120751 C24.3548084,8.54408793 24.0323282,8.44273548 23.7002895,8.34688322 C23.7548639,8.12415349 23.8049527,7.90430735 23.849488,7.68819919 C24.5805285,4.1396358 24.1025487,1.28088841 22.47039,0.339667129 C20.9053546,-0.562839446 18.3458586,0.378168243 15.7608909,2.62778644 C15.5123157,2.8441082 15.2630463,3.07313907 15.013884,3.31317025 C14.8478645,3.15435984 14.6821123,3.00088942 14.5167872,2.85409392 C11.8076654,0.448655699 9.09218909,-0.565028832 7.46163241,0.378915838 C5.89809221,1.284039 5.43506433,3.97153388 6.09310755,7.33453366 C6.15665307,7.65936341 6.2309319,7.99108171 6.31492948,8.32835355 C5.93061259,8.43744892 5.5595922,8.55375325 5.20459167,8.67748011 C2.02843707,9.78482754 0,11.5203144 0,13.3204682 C0,15.1796821 2.17752874,17.0445027 5.48574054,18.175239 C5.74681117,18.2644698 6.01770732,18.3488412 6.29688042,18.4289406 C6.20626131,18.7937133 6.1274435,19.1511701 6.06128139,19.4998161 C5.43383614,22.8044502 5.92383083,25.4284528 7.48320585,26.3278623 C9.09389788,27.256695 11.7970922,26.3019635 14.4293186,24.0010818 C14.6373634,23.8192027 14.8461558,23.6263234 15.055322,23.4241526 C15.3264319,23.6852231 15.5971143,23.932303 15.8663551,24.1640572 C18.4159723,26.3580865 20.934137,27.2440393 22.4920702,26.3421202 C24.1011602,25.4106173 24.6241025,22.5918129 23.9451799,19.1622773 C23.8933289,18.9003523 23.8329874,18.6327668 23.7652234,18.360429 C23.9550589,18.3043058 24.1414235,18.2463674 24.3231424,18.1861327 C27.7623435,17.0466387 30,15.2045127 30,13.3204682 C30,11.5137997 27.9061484,9.76661828 24.6660212,8.65120751 L24.6660212,8.65120751 Z M23.9200822,16.9696365 C23.7560387,17.0239438 23.5877231,17.0764357 23.4162036,17.1273254 C23.0365325,15.925354 22.52411,14.6472346 21.8970386,13.326716 C22.4954345,12.0376496 22.9880456,10.7758707 23.3570903,9.58169548 C23.6639777,9.670499 23.9618407,9.76416191 24.2488636,9.86300456 C27.0250017,10.8186971 28.7184097,12.2317038 28.7184097,13.3204682 C28.7184097,14.4802007 26.8895804,15.9856955 23.9200822,16.9696365 L23.9200822,16.9696365 Z M22.6879399,19.4111727 C22.9881524,20.9276679 23.0310322,22.2987559 22.8321722,23.3705926 C22.6534972,24.3337078 22.2941713,24.9758379 21.8498866,25.2330104 C20.9044467,25.7802495 18.8826314,25.0689135 16.7021655,23.1925584 C16.452202,22.9774648 16.2004229,22.7477932 15.9478429,22.5047181 C16.7931585,21.5802109 17.6379935,20.5054373 18.4625367,19.3117961 C19.9128163,19.1831032 21.2829967,18.9727086 22.5255518,18.6854722 C22.5867477,18.9323386 22.6411085,19.1744523 22.6879399,19.4111727 L22.6879399,19.4111727 Z M10.2276781,25.1384398 C9.30397188,25.4646579 8.56828564,25.4740028 8.1235738,25.2175779 C7.17727956,24.6717806 6.78388474,22.5649529 7.32049727,19.7388327 C7.38196022,19.4151777 7.45511767,19.082712 7.53943562,18.7428769 C8.76837393,19.0146274 10.1285151,19.2101767 11.5822656,19.3280296 C12.4123624,20.4960391 13.2816011,21.5696379 14.157568,22.5096844 C13.9661838,22.6944469 13.7755472,22.8703453 13.5859787,23.0360975 C12.4220277,24.0535201 11.2556204,24.7753758 10.2276781,25.1384398 L10.2276781,25.1384398 Z M5.90022821,16.9625343 C4.43739967,16.4625539 3.2293406,15.8127342 2.40127305,15.103641 C1.65720309,14.4664236 1.28153692,13.8337986 1.28153692,13.3204682 C1.28153692,12.2280727 2.91017122,10.834717 5.62644848,9.88767517 C5.95603079,9.77275923 6.30104558,9.66446486 6.65908989,9.56273863 C7.03448904,10.7838806 7.52694012,12.0606115 8.12122424,13.3516535 C7.51925058,14.661866 7.01980416,15.9589424 6.64072042,17.1943952 C6.38547035,17.1210243 6.13817682,17.0438085 5.90022821,16.9625343 L5.90022821,16.9625343 Z M7.35082826,7.08841492 C6.7870353,4.20707951 7.16147329,2.03350233 8.10370916,1.48807886 C9.10735458,0.907037841 11.3266952,1.73547916 13.6658112,3.81245647 C13.81533,3.94520788 13.9654363,4.08415362 14.1159697,4.22790534 C13.2443282,5.16384007 12.3830461,6.22937562 11.5603185,7.39049643 C10.1493943,7.52127205 8.79881169,7.73134607 7.5570575,8.01265513 C7.47898727,7.69861211 7.4098348,7.39006924 7.35082826,7.08841492 L7.35082826,7.08841492 Z M20.2914728,10.2837934 C19.9946245,9.77105044 19.6898729,9.27042922 19.3791942,8.78347832 C20.336382,8.90448179 21.2534665,9.06510778 22.1146952,9.26167171 C21.8561343,10.0903266 21.5338679,10.9567351 21.1545171,11.8449306 C20.8823929,11.3282895 20.594569,10.8073764 20.2914728,10.2837934 L20.2914728,10.2837934 Z M15.0143111,5.14381522 C15.6054446,5.78423659 16.1974325,6.49925718 16.7797018,7.2750465 C16.192947,7.24733211 15.5989298,7.23291422 15.0000001,7.23291422 C14.4067305,7.23291422 13.8170923,7.24701172 13.2339686,7.27424551 C13.8168252,6.50566512 14.4139395,5.79160571 15.0143111,5.14381522 L15.0143111,5.14381522 Z M9.70334747,10.2926577 C9.40681951,10.8068424 9.12433564,11.3249253 8.85648327,11.8439694 C8.48327348,10.9588711 8.1639973,10.088511 7.90319367,9.24810819 C8.7591358,9.05656384 9.67189511,8.89994284 10.6229953,8.78123554 C10.3079377,9.272672 10.0006764,9.7769778 9.70334747,10.2925509 L9.70334747,10.2926577 L9.70334747,10.2926577 Z M10.6503893,17.951121 C9.66772993,17.8414916 8.74124694,17.6929341 7.8855184,17.5066761 C8.15048721,16.651268 8.47681214,15.762325 8.85792505,14.8581629 C9.12647163,15.3768333 9.41007689,15.8951298 9.70842043,16.4104359 L9.70847382,16.4104359 C10.0123709,16.9354073 10.327215,17.4496453 10.6503893,17.951121 L10.6503893,17.951121 Z M15.0497685,21.5874732 C14.442348,20.9321 13.8364763,20.2071472 13.2447553,19.4273529 C13.8191747,19.4498875 14.4048081,19.4614219 15.0000001,19.4614219 C15.6114789,19.4614219 16.2159622,19.4476447 16.8109406,19.4211585 C16.2267489,20.214997 15.6368971,20.9410712 15.0497685,21.5874732 L15.0497685,21.5874732 Z M21.1667456,14.8120792 C21.5677232,15.7260132 21.9057427,16.6103106 22.174129,17.4511406 C21.304303,17.6495734 20.3651644,17.8093985 19.3756698,17.9281593 C19.6870963,17.43464 19.9945177,16.9254214 20.2965991,16.4016248 C20.6022052,15.8716874 20.8923785,15.3409488 21.1667456,14.8120792 L21.1667456,14.8120792 Z M19.1864749,15.7613638 C18.7175197,16.5744793 18.2360689,17.3506958 17.7473025,18.0833919 C16.8570777,18.1470441 15.9373765,18.1798315 15.0000001,18.1798315 C14.066415,18.1798315 13.1583013,18.1508354 12.2838296,18.0940717 C11.7753586,17.351764 11.2834416,16.5732513 10.8174767,15.7683591 L10.8175835,15.7683591 C10.3528468,14.9656564 9.925116,14.1561718 9.53754173,13.3512265 C9.9250092,12.5444119 10.3516186,11.7340196 10.8136853,10.9327587 L10.8135785,10.9329189 C11.2768734,10.1295219 11.7644651,9.35480059 12.2682368,8.61713856 C13.1604373,8.54969489 14.0753326,8.51450455 14.9999467,8.51450455 L15.0000001,8.51450455 C15.9287793,8.51450455 16.8448493,8.54996187 17.7367827,8.61799297 C18.2328649,9.35026164 18.7171459,10.1224732 19.1822564,10.9259769 C19.6526536,11.7385052 20.084763,12.543504 20.4755412,13.3330172 C20.0859379,14.1360936 19.6547896,14.9492094 19.1864749,15.7613638 L19.1864749,15.7613638 Z M21.8302356,1.44995154 C22.8348423,2.02928377 23.2255136,4.3657297 22.5943304,7.42953155 C22.554067,7.62502747 22.5087309,7.82415456 22.4594964,8.02595163 C21.2148586,7.73876861 19.8633148,7.52506343 18.4482791,7.39231202 C17.6239494,6.2184287 16.7697161,5.15123776 15.9122787,4.22731793 C16.1428048,4.00554943 16.3730105,3.79408702 16.6022549,3.59453273 C18.8170566,1.6670743 20.887092,0.906076648 21.8302356,1.44995154 L21.8302356,1.44995154 Z M15.0000001,10.6415707 C16.4794893,10.6415707 17.6788976,11.8409256 17.6788976,13.3204682 C17.6788976,14.7999573 16.4794893,15.9993659 15.0000001,15.9993659 C13.5205109,15.9993659 12.3211025,14.7999573 12.3211025,13.3204682 C12.3211025,11.8409256 13.5205109,10.6415707 15.0000001,10.6415707 L15.0000001,10.6415707 Z" id="Shape"></path>
            </g>
        </g>
    </g>
</svg>