<?xml version="1.0" encoding="UTF-8"?>
<svg width="31px" height="25px" viewBox="0 0 31 25" version="1.1" xmlns="http://www.w3.org/2000/svg" xmlns:xlink="http://www.w3.org/1999/xlink">
    <!-- Generator: Sketch 60.1 (88133) - https://sketch.com -->
    <title>redis</title>
    <desc>Created with Sketch.</desc>
    <g id="Templates" stroke="none" stroke-width="1" fill="none" fill-rule="evenodd">
        <g id="Home---Marketing" transform="translate(-1030.000000, -938.000000)" fill="#000000" fill-rule="nonzero">
            <g id="redis" transform="translate(1030.250000, 937.782258)">
                <path d="M17.46125,4.848125 L22.03125,3.03125 L26.1325,4.671875 L22.03125,6.25375 L21.5625,6.429375 L17.46125,4.848125 Z M12.5975,4.848125 C12.5975,5.14125 12.421875,5.375625 12.12875,5.55125 C11.7775,5.785625 11.30875,5.96125 10.78125,6.07875 C10.195,6.254375 9.550625,6.313125 8.90625,6.313125 C8.203125,6.313125 7.55875,6.254375 7.03125,6.07875 C6.445,5.96125 5.97625,5.785625 5.68375,5.55125 C5.331875,5.375 5.15625,5.140625 5.15625,4.848125 C5.15625,4.438125 5.5075,4.145 6.269375,3.851875 C6.9725,3.55875 7.85125,3.441875 8.90625,3.441875 C9.9025,3.441875 10.78125,3.559375 11.543125,3.851875 C12.24625,4.145 12.5975,4.4375 12.5975,4.848125 Z M15.58625,9.418125 L10.723125,7.425625 L17.695625,6.370625 L15.58625,9.418125 Z M18.925625,2.62125 L16.3475,2.914375 L15.76125,4.320625 L14.82375,2.73875 L11.835625,2.504375 L14.0625,1.68375 L13.359375,0.453125 L15.46875,1.273125 L17.46125,0.62875 L16.93375,1.9175 L18.925625,2.62125 Z M30,4.61375 L30,7.54375 C30,7.836875 29.59,8.188125 28.828125,8.59875 C28.476875,8.774375 27.715,9.12625 26.601875,9.65375 C25.43,10.18125 24.258125,10.65 23.08625,11.1775 C21.855625,11.705 20.68375,12.17375 19.511875,12.70125 C18.34,13.22875 17.578125,13.58 17.168125,13.75625 C16.289375,14.225 15.58625,14.459375 15,14.459375 C14.355625,14.518125 13.71125,14.341875 13.0075,13.990625 C12.5975,13.815 10.66375,12.994375 7.206875,11.529375 C3.75,10.12125 1.7575,9.30125 1.230625,9.008125 C0.41,8.598125 0,8.305 0,8.011875 L0,4.965 C0,5.258125 0.41,5.609375 1.230625,5.96125 C1.758125,6.254375 3.75,7.074375 7.206875,8.480625 C10.66375,9.945625 12.5975,10.765625 13.0075,11 C13.710625,11.293125 14.355,11.46875 15,11.41 C15.58625,11.41 16.28875,11.175625 17.168125,10.706875 C17.695625,10.4725 18.80875,10.00375 20.508125,9.241875 C22.2075,8.48 23.965,7.776875 25.664375,7.015625 C27.36375,6.254375 28.418125,5.785 28.828125,5.550625 C29.59,5.140625 29.94125,4.848125 30,4.61375 Z M30,9.71125 L30,12.699375 C30,12.9925 29.59,13.34375 28.828125,13.754375 C28.300625,14.0475 26.425625,14.8675 23.085625,16.27375 C19.745625,17.73875 17.75375,18.6175 17.1675,18.910625 C16.28875,19.320625 15.585625,19.555 14.999375,19.61375 C14.355,19.6725 13.710625,19.49625 13.006875,19.145 C12.655625,18.969375 11.600625,18.500625 9.843125,17.73875 C8.085625,17.035625 6.3275,16.3325 4.569375,15.570625 C2.753125,14.80875 1.639375,14.34 1.229375,14.164375 C0.41,13.754375 0,13.46125 0,13.168125 L0,10.12125 C0,10.414375 0.41,10.7075 1.230625,11.1175 C1.758125,11.410625 3.75,12.230625 7.206875,13.636875 C10.66375,15.101875 12.5975,15.921875 13.0075,16.098125 C13.710625,16.449375 14.355,16.625625 15,16.566875 C15.58625,16.566875 16.28875,16.3325 17.168125,15.86375 C17.754375,15.570625 19.74625,14.691875 23.08625,13.226875 C26.42625,11.820625 28.30125,11.000625 28.82875,10.7075 C29.59,10.296875 29.94125,10.004375 30,9.71125 Z M30,14.691875 L30,17.62125 C30,17.914375 29.59,18.265625 28.828125,18.67625 C28.300625,18.969375 26.425625,19.789375 23.085625,21.195625 C19.745625,22.660625 17.75375,23.539375 17.1675,23.8325 C16.28875,24.30125 15.585625,24.535625 14.999375,24.535625 C14.355,24.594375 13.710625,24.418125 13.006875,24.066875 C12.655625,23.89125 11.600625,23.480625 9.843125,22.719375 C8.085625,21.958125 6.3275,21.254375 4.569375,20.493125 C2.753125,19.79 1.639375,19.32125 1.229375,19.086875 C0.41,18.67625 0,18.383125 0,18.09 L0,15.043125 C0,15.33625 0.41,15.6875 1.230625,16.039375 C1.758125,16.3325 3.75,17.1525 7.206875,18.55875 C10.66375,20.02375 12.5975,20.84375 13.0075,21.078125 C13.710625,21.37125 14.355,21.546875 15,21.488125 C15.58625,21.488125 16.28875,21.25375 17.168125,20.785 C17.754375,20.491875 19.74625,19.613125 23.08625,18.148125 C26.42625,16.741875 28.30125,15.921875 28.82875,15.62875 C29.59,15.21875 29.94125,14.92625 30,14.691875 Z" id="Shape"></path>
            </g>
        </g>
    </g>
</svg>