<?xml version="1.0" encoding="UTF-8"?>
<svg width="30px" height="30px" viewBox="0 0 30 30" version="1.1" xmlns="http://www.w3.org/2000/svg" xmlns:xlink="http://www.w3.org/1999/xlink">
    <!-- Generator: Sketch 60.1 (88133) - https://sketch.com -->
    <title>rust</title>
    <desc>Created with Sketch.</desc>
    <g id="Templates" stroke="none" stroke-width="1" fill="none" fill-rule="evenodd">
        <g id="Home---Marketing" transform="translate(-682.000000, -936.000000)" fill="#000000" fill-rule="nonzero">
            <g id="rust" transform="translate(682.000000, 936.000000)">
                <path d="M29.6791244,14.575317 L28.4245662,13.7987128 C28.414002,13.6765119 28.4020104,13.5545965 28.3888766,13.4332521 L29.4669858,12.427664 C29.5766241,12.3254492 29.6257328,12.1741256 29.5960391,12.0276558 C29.567202,11.8806149 29.4641307,11.7595561 29.3239422,11.7073066 L27.9457555,11.1919499 C27.911208,11.0726041 27.8749474,10.9541149 27.8378303,10.8361967 L28.6975196,9.64216788 C28.7851731,9.5208235 28.8031606,9.36293303 28.7460574,9.22445768 C28.6889541,9.08655335 28.5641835,8.98776474 28.4165718,8.96349586 L26.9632942,8.72708844 C26.906762,8.61687919 26.8479456,8.50838302 26.7885582,8.40074342 L27.3992775,7.06024481 C27.4618055,6.92376807 27.4489572,6.76502105 27.3655865,6.64110702 C27.2825014,6.51662195 27.1417418,6.44381532 26.9915603,6.44952564 L25.5165836,6.50091856 C25.4403508,6.40555614 25.3626904,6.31105028 25.2836024,6.21825752 L25.6225101,4.78153995 C25.6567721,4.63564117 25.6136591,4.48289 25.5074471,4.37696349 C25.4020916,4.27132248 25.2490549,4.22763851 25.1031561,4.26190045 L23.666724,4.60052267 C23.5736458,4.5217202 23.4791399,4.44377428 23.3834919,4.36754144 L23.4351704,2.89256471 C23.4408808,2.74323974 23.3680742,2.60133818 23.243589,2.51853847 C23.1188184,2.43516775 22.9609281,2.42260504 22.8247368,2.48456205 L21.4845237,3.09556674 C21.376313,3.03617937 21.2678169,2.97736303 21.1581787,2.9205453 L20.9212002,1.46698228 C20.8972168,1.31965592 20.7984282,1.19459981 20.6602384,1.13749658 C20.522334,1.08010782 20.3641581,1.09866637 20.2428137,1.18603433 L19.0479284,2.04572364 C18.9302957,2.00832102 18.8120919,1.97234597 18.6927462,1.93808402 L18.1773894,0.559611769 C18.1251399,0.419137794 18.0040811,0.316066443 17.8570402,0.28694379 C17.7102849,0.258106653 17.5592469,0.306929924 17.4573175,0.415997116 L16.4517294,1.49496287 C16.3303851,1.4815436 16.2081842,1.46926641 16.0862687,1.45927334 L15.3096647,0.204429606 C15.2311477,0.0773748926 15.0921013,0 14.9424908,0 C14.7928804,0 14.6538339,0.0773748926 14.5756025,0.204429606 L13.7989983,1.45927334 C13.6767975,1.46926641 13.5545965,1.4815436 13.4332521,1.49496287 L12.4273785,0.415997116 C12.3254492,0.306929924 12.1741256,0.258106653 12.0276558,0.28694379 C11.8806149,0.31635196 11.7595561,0.419137794 11.7073066,0.559611769 L11.1919499,1.93808402 C11.0726041,1.97234597 10.9544004,2.00860653 10.8364822,2.04572364 L9.64188237,1.18603433 C9.52053798,1.09838086 9.362362,1.0798223 9.22417216,1.13749658 C9.08626782,1.19459981 8.9871937,1.31965592 8.96321035,1.46698228 L8.72623189,2.9205453 C8.61659366,2.97736303 8.50809751,3.03589384 8.39988686,3.09556674 L7.05967377,2.48456205 C6.92348255,2.42231952 6.76473553,2.43516775 6.6408215,2.51853847 C6.51633643,2.60133818 6.44352981,2.74323974 6.44924012,2.89256471 L6.50063304,4.36754144 C6.40527063,4.44377428 6.31076476,4.5217202 6.21740096,4.60052267 L4.78096892,4.26190045 C4.63507013,4.22792402 4.48203344,4.27132248 4.37639245,4.37696349 C4.27018042,4.48289 4.22706747,4.63564117 4.26132942,4.78153995 L4.59966613,6.21825752 C4.52114917,6.3113358 4.44348875,6.40555614 4.36725593,6.50091856 L2.8922792,6.44952564 C2.74352525,6.4452429 2.60133818,6.51662195 2.51825296,6.64110702 C2.43488223,6.76502105 2.42231952,6.92376807 2.48427654,7.06024481 L3.09528123,8.40074342 C3.03589384,8.50838302 2.97707751,8.61687919 2.92025979,8.72708844 L1.46698228,8.96349586 C1.3193704,8.98747923 1.19488534,9.08626782 1.13749658,9.22445768 C1.08039333,9.36293303 1.09895189,9.5208235 1.18603433,9.64216788 L2.04572364,10.8361967 C2.00832102,10.9541149 1.97206046,11.0726041 1.93779851,11.1919499 L0.559326253,11.7073066 C0.419423311,11.7595561 0.31635196,11.8806149 0.287229306,12.0276558 C0.258106653,12.1744111 0.306929924,12.3254492 0.416282632,12.427664 L1.49467736,13.4332521 C1.48125809,13.5545965 1.46926641,13.6767975 1.45898783,13.7987128 L0.204429606,14.575317 C0.0773748926,14.6538339 -1.42108547e-14,14.7925948 -1.42108547e-14,14.9424908 C-1.42108547e-14,15.0923868 0.0773748926,15.2311477 0.204429606,15.3093791 L1.45898783,16.0859832 C1.46926641,16.2081842 1.48125809,16.3300996 1.49467736,16.451444 L0.416282632,17.4573175 C0.306929924,17.5592469 0.258106653,17.7105704 0.287229306,17.8570402 C0.31635196,18.0040811 0.419423311,18.1248544 0.559326253,18.1773894 L1.93779851,18.6927462 C1.97206046,18.8120919 2.00832102,18.9305812 2.04572364,19.0484994 L1.18603433,20.2428137 C1.09866637,20.3644436 1.08010782,20.522334 1.13749658,20.6602384 C1.19488534,20.7987138 1.31965592,20.8975024 1.46726779,20.9212002 L2.92025979,21.1576076 C2.97707751,21.2678169 3.03532282,21.376313 3.09528123,21.4845237 L2.48427654,22.8244513 C2.422034,22.9606425 2.43488223,23.1191039 2.51825296,23.243589 C2.6016237,23.3683596 2.74352525,23.4411663 2.8922792,23.4351704 L4.3666849,23.3834919 C4.44348875,23.4794254 4.52086365,23.5733603 4.59966613,23.666724 L4.26132942,25.1037272 C4.22706747,25.2493404 4.27018042,25.4015205 4.37639245,25.5074471 C4.48174793,25.6139447 4.63507013,25.6564865 4.78096892,25.6222246 L6.21740096,25.2838878 C6.31076476,25.3632614 6.40527063,25.4403508 6.50063304,25.5162981 L6.44924012,26.9915603 C6.44352981,27.1408853 6.51633643,27.2825014 6.6408215,27.3658721 C6.76473553,27.4489572 6.92348255,27.46152 7.05967377,27.3992775 L8.39988686,26.7885582 C8.50781199,26.8485167 8.61630815,26.906762 8.72623189,26.9635798 L8.96321035,28.4162862 C8.9871937,28.5641835 9.08598231,28.6892396 9.22417216,28.7460574 C9.36207649,28.8034461 9.52053798,28.7848876 9.64188237,28.6978052 L10.8359112,27.8375449 C10.9538294,27.8749474 11.0723186,27.9114935 11.1916644,27.9457555 L11.7070212,29.3236568 C11.7592705,29.4635596 11.8803294,29.567202 12.0273703,29.5957536 C12.1741256,29.6254473 12.3251637,29.5763386 12.427093,29.4667004 L13.4329666,28.3883056 C13.554311,28.402296 13.6765119,28.414002 13.7987128,28.4248516 L14.575317,29.67941 C14.6535484,29.8058936 14.7925948,29.8838395 14.9422053,29.8838395 C15.0918158,29.8838395 15.2308621,29.8061791 15.3093791,29.67941 L16.0859832,28.4248516 C16.2081842,28.414002 16.3300996,28.402296 16.451444,28.3883056 L17.457032,29.4667004 C17.5589614,29.5763386 17.7102849,29.6254473 17.8567548,29.5957536 C18.0037955,29.5669165 18.1248544,29.4635596 18.1771039,29.3236568 L18.6924607,27.9457555 C18.8118064,27.9114935 18.9302957,27.8749474 19.0482139,27.8375449 L20.2425281,28.6978052 C20.3638725,28.7848876 20.5220485,28.8034461 20.6599529,28.7460574 C20.7981427,28.6892396 20.8969313,28.5638981 20.9209146,28.4162862 L21.1578932,26.9635798 C21.2675314,26.906762 21.3760275,26.8476601 21.4842382,26.7885582 L22.8244513,27.3992775 C22.9606425,27.46152 23.1191039,27.4489572 23.2433036,27.3658721 C23.3677886,27.2825014 23.4403097,27.1411708 23.4348849,26.9915603 L23.3834919,25.5162981 C23.4788544,25.4400653 23.5733603,25.3632614 23.6664385,25.2838878 L25.1028706,25.6222246 C25.2487694,25.6564865 25.401806,25.6139447 25.5071616,25.5074471 C25.6133736,25.4015205 25.6564865,25.2493404 25.6222246,25.1037272 L25.2838878,23.666724 C25.3626904,23.5733603 25.4403508,23.4794254 25.5162981,23.3834919 L26.9912748,23.4351704 C27.1400288,23.4411663 27.2822158,23.3683596 27.365301,23.243589 C27.4486717,23.1191039 27.46152,22.9606425 27.3989919,22.8244513 L26.7882727,21.4845237 C26.8479456,21.376313 26.9064765,21.2678169 26.9630087,21.1576076 L28.4162862,20.9212002 C28.5641835,20.8975024 28.6886687,20.7987138 28.7457719,20.6602384 C28.8028751,20.522334 28.7848876,20.3644436 28.6972341,20.2428137 L27.8375449,19.0484994 C27.8746619,18.9305812 27.9109226,18.8120919 27.94547,18.6927462 L29.3236568,18.1773894 C29.4638451,18.1248544 29.567202,18.0040811 29.5957536,17.8570402 C29.6254473,17.7102849 29.5763386,17.5592469 29.4667004,17.4573175 L28.3885911,16.451444 C28.4017249,16.3300996 28.4137165,16.2078986 28.4242807,16.0859832 L29.6788389,15.3093791 C29.8058936,15.2311477 29.8832685,15.0921013 29.8832685,14.9424908 C29.8832685,14.7928804 29.8061791,14.6538339 29.6791244,14.575317 L29.6791244,14.575317 Z M21.2823782,24.9826683 C20.8032821,24.8793114 20.4986363,24.4070675 20.6014221,23.9265438 C20.7039224,23.4465911 21.1758807,23.1410887 21.6546914,23.2444456 C22.1337875,23.3469459 22.4390044,23.8200462 22.3362186,24.2997135 C22.2334327,24.7793807 21.7611888,25.0851686 21.2823782,24.9826683 L21.2823782,24.9826683 Z M20.8561025,22.0995256 C20.4189772,22.0058763 19.9889897,22.2839691 19.8953405,22.721951 L19.4499351,24.8005089 C18.0754602,25.4243618 16.5490905,25.7709786 14.9416342,25.7709786 C13.2973464,25.7709786 11.7378568,25.4072309 10.3388274,24.7568249 L9.89370767,22.678267 C9.80005835,22.2408561 9.37007094,21.9621923 8.93323115,22.0561271 L7.09821846,22.4501395 C6.75759763,22.0995256 6.44067463,21.7260704 6.14944811,21.3317726 L15.078111,21.3317726 C15.1791837,21.3317726 15.2465656,21.3134994 15.2465656,21.2215633 L15.2465656,18.0631829 C15.2465656,17.9712467 15.1791837,17.9529737 15.078111,17.9529737 L12.4667797,17.9529737 L12.4667797,15.950934 L15.2911061,15.950934 C15.5489272,15.950934 16.6695783,16.0245972 17.0279011,17.457032 C17.1401091,17.8975835 17.3865096,19.3305894 17.5549641,19.789414 C17.7228476,20.3039142 18.4063735,21.3317726 19.1347253,21.3317726 L23.5839244,21.3317726 C23.6344607,21.3317726 23.6884233,21.3260622 23.7452411,21.3157836 C23.436598,21.735207 23.0979758,22.1320744 22.7333716,22.50296 L20.8561025,22.0995256 L20.8561025,22.0995256 Z M8.50695544,24.9392698 C8.02785925,25.0426267 7.55618646,24.7371243 7.45311511,24.2571716 C7.3506148,23.7763623 7.65526059,23.304404 8.13435679,23.2010471 C8.61345299,23.0985468 9.08541128,23.4040492 9.18819712,23.8840019 C9.29069743,24.3636691 8.98576612,24.8364839 8.50695544,24.9392698 L8.50695544,24.9392698 Z M5.11987666,11.2045126 C5.31859593,11.6530585 5.11645046,12.1786939 4.66847553,12.3771277 C4.2205006,12.5761325 3.69629284,12.3737015 3.49757356,11.92487 C3.29885428,11.4760385 3.50099975,10.9512597 3.94897468,10.7522549 C4.39723513,10.5535356 4.92115738,10.7556811 5.11987666,11.2045126 L5.11987666,11.2045126 Z M4.07888456,13.6722292 L5.99041557,12.8228184 C6.39870376,12.6415157 6.58314723,12.1629905 6.40184443,11.7538458 L6.00811758,10.8636062 L7.55647199,10.8636062 L7.55647199,17.8427644 L4.43263914,17.8427644 C4.16168426,16.8902824 4.01635651,15.8849798 4.01635651,14.8459863 C4.01635651,14.4494043 4.03777023,14.0573905 4.07888456,13.6722292 L4.07888456,13.6722292 Z M12.4673507,12.9944137 L12.4673507,10.9372694 L16.154507,10.9372694 C16.3449465,10.9372694 17.4992884,11.1574024 17.4992884,12.0205179 C17.4992884,12.7371636 16.6139026,12.9941282 15.8858364,12.9941282 L12.4673507,12.9941282 L12.4673507,12.9944137 Z M25.8671974,14.8459863 C25.8671974,15.1189398 25.8572044,15.3890381 25.8372183,15.6571379 L24.7162816,15.6571379 C24.6040738,15.6571379 24.5589622,15.7308011 24.5589622,15.8407248 L24.5589622,16.3555105 C24.5589622,17.5672412 23.8757219,17.8307728 23.2769944,17.897869 C22.7068186,17.9621102 22.0746857,17.6591775 21.9967397,17.3102767 C21.6604017,15.4184463 21.0999334,15.0144409 20.2148331,14.3163537 C21.313214,13.6188376 22.4561353,12.5898372 22.4561353,11.212507 C22.4561353,9.72525311 21.436557,8.78847442 20.7416105,8.32907884 C19.7665726,7.68638186 18.6870358,7.55761404 18.3958094,7.55761404 L6.80299471,7.55761404 C8.37504696,5.80311695 10.5055689,4.56026489 12.9153257,4.10800722 L14.2818063,5.5415841 C14.5907349,5.86507396 15.1023798,5.87706564 15.4255842,5.56785159 L16.9545235,4.10543757 C20.1583009,4.70188093 22.8707049,6.69621165 24.4339061,9.43231347 L23.3872037,11.7963877 C23.206472,12.2055325 23.3909154,12.6840575 23.7989181,12.8653604 L25.8140915,13.7604537 C25.8489244,14.1182054 25.8671974,14.479669 25.8671974,14.8459863 L25.8671974,14.8459863 Z M14.2823774,2.88856749 C14.6364174,2.54937423 15.1980278,2.56279349 15.5369356,2.91740462 C15.8752723,3.27287231 15.862424,3.83505371 15.5075274,4.17396146 C15.1534872,4.51315471 14.5918768,4.50002096 14.2529692,4.1448388 C13.914918,3.78994215 13.9277661,3.22776074 14.2823774,2.88856749 L14.2823774,2.88856749 Z M24.669457,11.2476255 C24.8678908,10.7990796 25.3920985,10.5966486 25.8400735,10.7956534 C26.2880484,10.9943726 26.4901939,11.5197225 26.2914746,11.9682684 C26.0930408,12.4170999 25.5688331,12.6195309 25.1205726,12.4205261 C24.6731687,12.2218068 24.4710232,11.6967425 24.669457,11.2476255 L24.669457,11.2476255 Z" id="Shape"></path>
            </g>
        </g>
    </g>
</svg>